<?xml version="1.0" encoding="utf-8"?>
<!-- Generator: Adobe Illustrator 27.3.1, SVG Export Plug-In . SVG Version: 6.00 Build 0)  -->
<svg version="1.1" id="Layer_1" xmlns="http://www.w3.org/2000/svg" xmlns:xlink="http://www.w3.org/1999/xlink" x="0px" y="0px"
	 viewBox="0 0 722 578" style="enable-background:new 0 0 722 578;" xml:space="preserve">
<style type="text/css">
	.st0{fill:#FFFFFF;}
	.st1{fill:#E8E8E8;}
	.st2{fill:#FFFFFF;filter:url(#Adobe_OpacityMaskFilter);}
	.st3{mask:url(#path-2-inside-1_274_295_00000098938345378730813130000008673627925990423201_);}
	.st4{fill:none;stroke:#000000;stroke-width:2.5113;}
	.st5{fill:none;}
	.st6{fill:none;stroke:#ABABAB;stroke-width:1.8066;}
	.st7{fill:#858585;}
	.st8{fill:none;stroke:#FFFFFF;}
	.st9{fill:#FFFFFF;filter:url(#Adobe_OpacityMaskFilter_00000013190345851460365100000006746855759753157275_);}
	.st10{mask:url(#path-28-inside-2_274_295_00000165924987456018139230000010901200708578653111_);}
	.st11{fill:#FFFFFF;filter:url(#Adobe_OpacityMaskFilter_00000002365222966513318730000002622335677358506638_);}
	.st12{mask:url(#path-30-inside-3_274_295_00000060008200337438576830000006593218479845186737_);}
	.st13{fill:none;stroke:#000000;stroke-width:1.5215;}
	.st14{fill:none;stroke:#000000;stroke-width:1.4605;}
	.st15{fill:none;stroke:#ABABAB;stroke-width:1.3039;}
	.st16{fill:none;stroke:#000000;stroke-width:2;}
	.st17{fill:none;stroke:#FFFFFF;stroke-width:2;}
	.st18{fill:#007ECA;}
</style>
<path class="st0" d="M12.6,1.3h696.9c6.2,0,11.3,5.1,11.3,11.3v401.8c0,6.2-5.1,11.3-11.3,11.3H12.6c-6.2,0-11.3-5.1-11.3-11.3V12.6
	C1.3,6.3,6.3,1.3,12.6,1.3z"/>
<path class="st1" d="M0,14C0,6.3,6.3,0,14,0h694c7.7,0,14,6.3,14,14v16.1H0V14z"/>
<circle cx="25.7" cy="14.4" r="6.9"/>
<circle cx="45.8" cy="14.4" r="6.9"/>
<circle cx="65.9" cy="14.4" r="6.9"/>
<defs>
	<filter id="Adobe_OpacityMaskFilter" filterUnits="userSpaceOnUse" x="0" y="0" width="722" height="32.6">
		<feColorMatrix  type="matrix" values="1 0 0 0 0  0 1 0 0 0  0 0 1 0 0  0 0 0 1 0"/>
	</filter>
</defs>
<mask maskUnits="userSpaceOnUse" x="0" y="0" width="722" height="32.6" id="path-2-inside-1_274_295_00000098938345378730813130000008673627925990423201_">
	<path class="st2" d="M0,14C0,6.3,6.3,0,14,0h694c7.7,0,14,6.3,14,14v16.1H0V14z"/>
</mask>
<path class="st3" d="M0,0h722H0z M722,32.6H0v-5h722V32.6z M0,30.1V0V30.1z M722,0v30.1V0z"/>
<path d="M446.4,79.1h209.7c13.5,0,24.5,11,24.5,24.5v0c0,13.5-11,24.5-24.5,24.5H446.4c-13.5,0-24.5-11-24.5-24.5v0
	C421.9,90.1,432.9,79.1,446.4,79.1z"/>
<path class="st4" d="M446.4,79.1h209.7c13.5,0,24.5,11,24.5,24.5v0c0,13.5-11,24.5-24.5,24.5H446.4c-13.5,0-24.5-11-24.5-24.5v0
	C421.9,90.1,432.9,79.1,446.4,79.1z"/>
<path class="st0" d="M445.1,76.6h209.7c13.5,0,24.5,11,24.5,24.5l0,0c0,13.5-11,24.5-24.5,24.5H445.1c-13.5,0-24.5-11-24.5-24.5l0,0
	C420.6,87.6,431.6,76.6,445.1,76.6z"/>
<path d="M453.3,106.2l5.4,5.4l-1.8,1.8l-5.4-5.4c-2,1.6-4.5,2.5-7.1,2.5c-6.2,0-11.3-5.1-11.3-11.3c0-6.2,5.1-11.3,11.3-11.3
	s11.3,5.1,11.3,11.3C455.8,101.8,454.9,104.2,453.3,106.2z M450.8,105.3c1.6-1.6,2.5-3.8,2.5-6.1c0-4.9-3.9-8.8-8.8-8.8
	c-4.9,0-8.8,3.9-8.8,8.8c0,4.9,3.9,8.8,8.8,8.8c2.3,0,4.5-0.9,6.1-2.5L450.8,105.3z"/>
<path class="st4" d="M445.1,76.6h209.7c13.5,0,24.5,11,24.5,24.5l0,0c0,13.5-11,24.5-24.5,24.5H445.1c-13.5,0-24.5-11-24.5-24.5l0,0
	C420.6,87.6,431.6,76.6,445.1,76.6z"/>
<path class="st0" d="M391.1,141.9h263.4c13.5,0,24.5,11,24.5,24.5l0,0c0,13.5-11,24.5-24.5,24.5H391.1c-13.5,0-24.5-11-24.5-24.5
	l0,0C366.6,152.9,377.6,141.9,391.1,141.9z"/>
<path d="M406,161.9c0.3-0.6,0.5-1.3,0.7-1.9c0.2-0.7,0.5-1.3,0.6-2c0.1-0.2,0.1-0.3,0.3-0.5c0.1-0.1,0.3-0.2,0.4-0.2
	c0.1,0,0.2,0,0.3,0.1c0.1,0.1,0.1,0.2,0.1,0.3c0,0.2-0.1,0.5-0.2,1c-0.1,0.5-0.3,1-0.5,1.7c-0.2,0.7-0.4,1.5-0.6,2.4
	c-0.2,0.9-0.4,1.9-0.5,3c-0.1,1.1-0.2,2.2-0.2,3.5c0,0.3-0.1,0.5-0.2,0.7c-0.1,0.2-0.3,0.3-0.4,0.3c-0.1,0-0.2,0-0.3-0.1
	c-0.1,0-0.2-0.2-0.2-0.3c-0.1-0.2-0.1-0.4-0.1-0.8c0-0.4-0.1-0.9-0.1-1.6c0-0.5,0-1,0.1-1.6c-0.4,0.8-0.9,1.5-1.4,2.1
	c-0.5,0.6-1,1-1.5,1.4c-0.5,0.3-0.9,0.5-1.2,0.5c-0.4,0-0.8-0.1-1-0.4c-0.2-0.3-0.4-0.7-0.4-1.2c0-0.5,0.1-1,0.3-1.5
	c0.2-0.5,0.5-1,0.9-1.5c0.4-0.5,0.8-1,1.2-1.4c0.4-0.4,0.9-0.8,1.3-1.1c0.5-0.3,0.9-0.6,1.3-0.8c0.4-0.2,0.7-0.3,0.9-0.3
	c0.1,0,0.2,0,0.3,0.1C406,161.7,406,161.8,406,161.9z M405.9,162.4c-0.1,0.1-0.1,0.1-0.2,0.2c-0.1,0.1-0.2,0.1-0.3,0.2
	c-0.4,0.3-0.9,0.6-1.4,1c-0.5,0.4-1,0.8-1.4,1.3c-0.5,0.5-0.8,0.9-1.1,1.4c-0.3,0.5-0.4,1-0.4,1.5c0,0.2,0.1,0.3,0.3,0.3
	c0.3,0,0.7-0.1,1-0.4c0.4-0.3,0.8-0.7,1.2-1.3c0.4-0.5,0.8-1.2,1.2-1.9C405.1,164,405.5,163.2,405.9,162.4z M415,163
	c0,0.3-0.1,0.6-0.3,0.9c-0.2,0.3-0.4,0.6-0.8,0.8c-0.3,0.3-0.7,0.5-1.1,0.7c-0.4,0.2-0.8,0.4-1.2,0.6c-0.4,0.2-0.7,0.3-1.1,0.4
	c-0.1,0.4-0.1,0.7-0.1,1c0,0.2,0,0.3,0.1,0.4c0.1,0.1,0.2,0.1,0.4,0.1c0.4,0,0.8-0.1,1.3-0.2c0.5-0.1,0.9-0.3,1.4-0.6
	c0.5-0.2,0.9-0.5,1.4-0.7c0.4-0.3,0.8-0.5,1.2-0.7c0.4-0.2,0.7-0.4,0.9-0.6c0.2-0.1,0.4-0.2,0.5-0.2c0.1,0,0.2,0,0.3,0.1
	c0.1,0.1,0.1,0.1,0.1,0.2c0,0.1-0.1,0.2-0.4,0.4c-0.2,0.2-0.5,0.5-0.9,0.8c-0.4,0.3-0.8,0.6-1.3,0.9c-0.5,0.3-1,0.6-1.5,0.9
	c-0.5,0.3-1,0.5-1.5,0.7c-0.5,0.2-0.9,0.2-1.3,0.2c-0.5,0-0.9-0.2-1.2-0.6c-0.3-0.4-0.4-1-0.4-1.7c0-0.5,0.1-1.1,0.2-1.6
	c0.1-0.5,0.3-1.1,0.6-1.5c0.3-0.5,0.5-0.9,0.8-1.3c0.3-0.4,0.6-0.7,1-0.9c0.3-0.2,0.7-0.3,1-0.3c0.6,0,1.1,0.2,1.4,0.5
	C414.8,162,415,162.4,415,163z M411,165.4c0.3-0.2,0.6-0.4,0.9-0.6c0.3-0.2,0.6-0.4,0.9-0.6c0.3-0.2,0.5-0.4,0.6-0.7
	c0.2-0.2,0.3-0.5,0.3-0.7c0-0.4-0.2-0.5-0.6-0.5c-0.2,0-0.5,0.2-0.8,0.5c-0.3,0.3-0.5,0.7-0.8,1.2
	C411.4,164.3,411.1,164.8,411,165.4z M419,169.5c-0.2,0-0.4-0.1-0.5-0.2c-0.1-0.1-0.2-0.3-0.2-0.4c0-0.1,0.1-0.3,0.2-0.4
	c0.1-0.1,0.3-0.2,0.5-0.3c0.4-0.2,0.7-0.4,1.1-0.6c0.3-0.2,0.6-0.4,0.8-0.7c0.2-0.2,0.3-0.5,0.3-0.7c0-0.2-0.1-0.4-0.2-0.5
	c-0.1-0.1-0.3-0.2-0.6-0.2c-0.1,0-0.3,0-0.6,0.1c-0.3,0-0.5,0.1-0.9,0.2c-0.3,0.1-0.6,0.1-0.9,0.2c-0.3,0-0.5,0.1-0.7,0.1
	c-0.4,0-0.6-0.1-0.8-0.3c-0.2-0.2-0.3-0.4-0.3-0.7c0-0.2,0.1-0.4,0.3-0.7c0.2-0.3,0.4-0.7,0.7-1c0.3-0.4,0.6-0.8,1-1.2
	c0.4-0.4,0.7-0.7,1.1-1.1c0.4-0.3,0.7-0.6,1.1-0.8c0.3-0.2,0.6-0.3,0.8-0.3c0.2,0,0.4,0.1,0.5,0.2c0.1,0.1,0.2,0.3,0.2,0.5
	c0,0.2,0,0.3-0.1,0.4c-0.1,0.1-0.2,0.2-0.4,0.3c-0.2,0.1-0.4,0.1-0.8,0.1c-0.4,0.3-0.8,0.6-1.2,1c-0.4,0.4-0.8,0.8-1.1,1.2
	c-0.3,0.4-0.6,0.8-0.7,1.1c0.3-0.1,0.7-0.2,1.2-0.3c0.5-0.1,0.9-0.1,1.4-0.1c0.7,0,1.3,0.2,1.6,0.5c0.4,0.3,0.5,0.8,0.5,1.3
	c0,0.3-0.1,0.7-0.3,1.1c-0.2,0.4-0.5,0.7-0.8,1c-0.3,0.3-0.7,0.6-1.1,0.8C419.8,169.4,419.4,169.5,419,169.5z M423,164.6
	c-0.3,0-0.4-0.2-0.4-0.5c0-0.1,0.1-0.2,0.2-0.3c0.1-0.1,0.2-0.2,0.3-0.2c0.3,0,0.7-0.1,1.1-0.1c0.4-0.1,0.9-0.1,1.5-0.2
	c0.1-0.5,0.2-1,0.3-1.5c0.1-0.5,0.3-1,0.4-1.5c0.2-0.5,0.3-1,0.5-1.4c0.2-0.4,0.4-0.7,0.6-1c0.1-0.1,0.2-0.2,0.3-0.2
	c0.1,0,0.2-0.1,0.2-0.1c0.1,0,0.2,0.1,0.3,0.2c0.1,0.1,0.1,0.2,0.1,0.4c0,0.1,0,0.2,0,0.2c-0.2,0.5-0.4,1.2-0.6,2
	c-0.2,0.8-0.5,1.7-0.7,2.6c0.9-0.1,1.8-0.3,2.7-0.5c0.9-0.2,1.6-0.3,2.3-0.4c0.2-0.1,0.3-0.1,0.4,0c0.1,0.1,0.2,0.2,0.2,0.3
	c0,0.1,0,0.2-0.1,0.3c-0.1,0.1-0.1,0.1-0.2,0.2l0,0c-0.2,0.1-0.5,0.2-0.9,0.3c-0.4,0.1-0.8,0.2-1.3,0.3c-0.5,0.1-1,0.2-1.6,0.3
	c-0.6,0.1-1.1,0.2-1.7,0.3c-0.2,0.8-0.4,1.7-0.7,2.6c-0.2,0.9-0.4,1.8-0.7,2.6c-0.1,0.3-0.2,0.6-0.3,0.7c-0.1,0.1-0.2,0.1-0.4,0.1
	c-0.2,0-0.3-0.1-0.4-0.2c-0.1-0.1-0.1-0.4,0-0.7l1.1-4.9c-0.6,0.1-1.1,0.1-1.5,0.2C423.5,164.6,423.2,164.6,423,164.6z M431.3,169.3
	c-0.2,0-0.3-0.1-0.5-0.2c-0.1-0.1-0.2-0.4-0.2-0.7c0-0.2,0-0.5,0.1-0.9c0.1-0.4,0.1-0.8,0.2-1.3c0.1-0.5,0.2-0.9,0.3-1.3
	c0.1-0.5,0.2-0.9,0.3-1.2c0.1-0.4,0.2-0.6,0.3-0.8c0.1-0.1,0.1-0.2,0.2-0.3c0.1,0,0.1-0.1,0.2-0.1c0.1,0,0.2,0,0.3,0.1
	c0.1,0.1,0.2,0.3,0.2,0.5c0,0.1,0,0.4-0.1,0.7c0,0.3-0.1,0.7-0.2,1.2c-0.1,0.4-0.2,0.9-0.3,1.3c-0.1,0.5-0.2,0.9-0.3,1.3
	c-0.1,0.4-0.2,0.8-0.2,1c0,0.2-0.1,0.3-0.2,0.4C431.5,169.2,431.4,169.3,431.3,169.3z M432.7,161.3c-0.2,0-0.4-0.1-0.6-0.2
	c-0.2-0.1-0.3-0.4-0.3-0.6c0-0.3,0.1-0.5,0.2-0.6c0.1-0.2,0.3-0.3,0.4-0.3c0.2-0.1,0.3-0.1,0.4-0.1s0.3,0,0.4,0.1
	c0.2,0,0.3,0.1,0.4,0.3c0.1,0.1,0.2,0.3,0.2,0.6c0,0.2-0.1,0.3-0.2,0.5c-0.1,0.1-0.3,0.2-0.5,0.3
	C433.1,161.2,432.9,161.3,432.7,161.3z M436,168.9c-0.3,0-0.5-0.2-0.8-0.5c-0.2-0.3-0.3-0.7-0.3-1.2c0-0.5,0.1-1.1,0.2-1.8
	c0.2-0.6,0.3-1.3,0.6-1.9c0.2-0.7,0.4-1.3,0.6-1.9c0-0.1,0.1-0.2,0.2-0.3c0.1-0.1,0.2-0.1,0.4-0.1c0.3,0,0.5,0.2,0.5,0.5
	c0,0.1,0,0.2-0.1,0.5s-0.2,0.6-0.3,1c-0.1,0.4-0.2,0.8-0.4,1.3c-0.1,0.5-0.2,0.9-0.3,1.4c-0.1,0.5-0.2,0.9-0.2,1.3
	c0.2-0.2,0.3-0.4,0.5-0.8c0.2-0.3,0.4-0.7,0.7-1.1c0.2-0.4,0.5-0.9,0.7-1.3c0.2-0.4,0.5-0.8,0.8-1.2c0.3-0.4,0.5-0.7,0.8-0.9
	c0.3-0.2,0.5-0.3,0.7-0.3c0.3,0,0.6,0.1,0.8,0.3c0.2,0.2,0.4,0.5,0.5,1c0.1,0.5,0.2,1.1,0.2,2c0,0.5,0,0.9,0.1,1.3
	c0.1,0.4,0.2,0.7,0.4,1c0.2,0.2,0.5,0.3,0.8,0.3c0.5,0,0.9-0.1,1.3-0.3c0.4-0.2,0.7-0.4,1-0.6c0.3-0.2,0.5-0.4,0.7-0.6
	c0.2-0.2,0.3-0.3,0.4-0.3c0.2,0,0.3,0.1,0.3,0.3c0,0.1-0.1,0.3-0.2,0.5c-0.1,0.2-0.3,0.4-0.6,0.7c-0.2,0.2-0.5,0.5-0.8,0.7
	c-0.3,0.2-0.6,0.4-1,0.6c-0.3,0.2-0.7,0.2-1.1,0.2c-0.7,0-1.2-0.1-1.6-0.4c-0.4-0.3-0.7-0.7-0.9-1.3c-0.2-0.6-0.3-1.4-0.3-2.4
	c0-0.5,0-0.9-0.1-1.2c-0.1-0.3-0.2-0.4-0.3-0.5c-0.1,0.2-0.3,0.5-0.4,0.9c-0.2,0.4-0.4,0.8-0.6,1.2c-0.2,0.5-0.5,0.9-0.7,1.4
	c-0.3,0.5-0.5,0.9-0.8,1.3c-0.3,0.4-0.5,0.7-0.8,0.9C436.4,168.7,436.2,168.9,436,168.9z M446.8,169.6c-0.4,0-0.7-0.2-0.9-0.5
	c-0.2-0.3-0.3-0.8-0.3-1.3c0-0.5,0.1-1,0.4-1.5c0.3-0.5,0.6-1,1-1.4c0.4-0.5,0.9-0.9,1.4-1.3c0.5-0.4,1-0.7,1.5-1
	c0.5-0.3,1-0.5,1.4-0.7c0.4-0.2,0.8-0.2,1-0.2c0.1,0,0.2,0,0.3,0.1c0.1,0,0.1,0.1,0.1,0.3c0,0.1,0,0.2-0.1,0.2c0,0,0,0,0,0
	c0.2,0,0.3,0.1,0.3,0.4c0,0.1,0,0.3-0.1,0.5c-0.1,0.3-0.1,0.6-0.2,1c-0.1,0.4-0.2,0.8-0.2,1.3c-0.1,0.5-0.1,1-0.1,1.4
	c0,0.4,0.2,0.6,0.5,0.6c0.4,0,0.7-0.1,1.1-0.2s0.7-0.4,1.1-0.6c0.3-0.2,0.7-0.5,1-0.7c0.3-0.2,0.5-0.4,0.7-0.6
	c0.2-0.2,0.3-0.2,0.4-0.2c0.1,0,0.1,0,0.2,0.1c0.1,0,0.1,0.1,0.1,0.2c0,0.1-0.1,0.3-0.3,0.5c-0.2,0.3-0.4,0.5-0.8,0.9
	c-0.3,0.3-0.7,0.6-1.1,0.9c-0.4,0.3-0.8,0.5-1.2,0.7c-0.4,0.2-0.8,0.3-1.2,0.3c-0.3,0-0.6-0.1-0.8-0.3c-0.2-0.2-0.4-0.5-0.6-0.9
	c-0.1-0.4-0.2-1-0.2-1.8v-0.4c-0.5,0.8-1,1.5-1.5,2.1c-0.5,0.6-1,1.2-1.5,1.5C447.7,169.4,447.2,169.6,446.8,169.6z M452,162.6
	c0,0-0.1,0-0.2,0.1c-0.4,0.2-0.9,0.5-1.4,0.8c-0.5,0.3-0.9,0.6-1.4,1c-0.4,0.4-0.8,0.7-1.2,1.1c-0.4,0.4-0.6,0.8-0.9,1.2
	c-0.2,0.4-0.3,0.8-0.3,1.2c0,0.1,0,0.2,0.1,0.3c0.1,0.1,0.2,0.1,0.3,0.1c0.2,0,0.4-0.1,0.8-0.4c0.3-0.3,0.6-0.6,1-1
	c0.4-0.4,0.8-0.9,1.1-1.3c0.4-0.5,0.7-1,1.1-1.5c0.3-0.5,0.6-1,0.9-1.4C451.9,162.7,451.9,162.6,452,162.6z M455.3,164.6
	c-0.3,0-0.4-0.2-0.4-0.5c0-0.1,0.1-0.2,0.2-0.3c0.1-0.1,0.2-0.2,0.3-0.2c0.3,0,0.7-0.1,1.1-0.1c0.4-0.1,0.9-0.1,1.5-0.2
	c0.1-0.5,0.2-1,0.3-1.5c0.1-0.5,0.3-1,0.4-1.5c0.2-0.5,0.3-1,0.5-1.4c0.2-0.4,0.4-0.7,0.6-1c0.1-0.1,0.2-0.2,0.3-0.2
	c0.1,0,0.2-0.1,0.2-0.1c0.1,0,0.2,0.1,0.3,0.2c0.1,0.1,0.1,0.2,0.1,0.4c0,0.1,0,0.2,0,0.2c-0.2,0.5-0.4,1.2-0.6,2
	c-0.2,0.8-0.5,1.7-0.7,2.6c0.9-0.1,1.8-0.3,2.7-0.5c0.9-0.2,1.6-0.3,2.3-0.4c0.2-0.1,0.3-0.1,0.4,0c0.1,0.1,0.2,0.2,0.2,0.3
	c0,0.1,0,0.2-0.1,0.3c-0.1,0.1-0.1,0.1-0.2,0.2l0,0c-0.2,0.1-0.5,0.2-0.9,0.3c-0.4,0.1-0.8,0.2-1.3,0.3c-0.5,0.1-1,0.2-1.6,0.3
	c-0.6,0.1-1.1,0.2-1.7,0.3c-0.2,0.8-0.4,1.7-0.7,2.6c-0.2,0.9-0.4,1.8-0.7,2.6c-0.1,0.3-0.2,0.6-0.3,0.7c-0.1,0.1-0.2,0.1-0.4,0.1
	c-0.2,0-0.3-0.1-0.4-0.2c-0.1-0.1-0.1-0.4,0-0.7l1.1-4.9c-0.6,0.1-1.1,0.1-1.5,0.2C455.8,164.6,455.5,164.6,455.3,164.6z
	 M463.6,169.3c-0.2,0-0.3-0.1-0.5-0.2c-0.1-0.1-0.2-0.4-0.2-0.7c0-0.2,0-0.5,0.1-0.9c0.1-0.4,0.1-0.8,0.2-1.3
	c0.1-0.5,0.2-0.9,0.3-1.3c0.1-0.5,0.2-0.9,0.3-1.2c0.1-0.4,0.2-0.6,0.3-0.8c0.1-0.1,0.1-0.2,0.2-0.3c0.1,0,0.1-0.1,0.2-0.1
	c0.1,0,0.2,0,0.3,0.1c0.1,0.1,0.2,0.3,0.2,0.5c0,0.1,0,0.4-0.1,0.7c0,0.3-0.1,0.7-0.2,1.2c-0.1,0.4-0.2,0.9-0.3,1.3
	c-0.1,0.5-0.2,0.9-0.3,1.3s-0.2,0.8-0.2,1c0,0.2-0.1,0.3-0.2,0.4C463.8,169.2,463.7,169.3,463.6,169.3z M465,161.3
	c-0.2,0-0.4-0.1-0.6-0.2c-0.2-0.1-0.3-0.4-0.3-0.6c0-0.3,0.1-0.5,0.2-0.6c0.1-0.2,0.3-0.3,0.4-0.3c0.2-0.1,0.3-0.1,0.4-0.1
	s0.3,0,0.4,0.1c0.2,0,0.3,0.1,0.4,0.3c0.1,0.1,0.2,0.3,0.2,0.6c0,0.2-0.1,0.3-0.2,0.5c-0.1,0.1-0.3,0.2-0.5,0.3
	C465.4,161.2,465.2,161.3,465,161.3z M475.8,169.7c-0.3,0-0.5-0.1-0.6-0.3c-0.1-0.2-0.2-0.5-0.2-0.9c0-0.4,0-0.8,0.1-1.3
	c0.1-0.5,0.2-1.1,0.3-1.7c0.1-0.6,0.3-1.3,0.4-2c-0.6,0.8-1.2,1.4-2,1.9c-0.7,0.5-1.5,0.8-2.3,0.9c-0.2,0.5-0.4,0.9-0.7,1.3
	c-0.3,0.4-0.5,0.7-0.9,0.9c-0.3,0.2-0.6,0.3-1,0.3c-0.4,0-0.8-0.2-1.1-0.5c-0.3-0.3-0.4-0.8-0.4-1.5c0-0.4,0.1-0.8,0.2-1.2
	c0.1-0.4,0.2-0.6,0.4-0.8c-0.1-0.4-0.2-0.8-0.2-1.2c0-0.6,0.1-1.1,0.4-1.5c0.3-0.4,0.6-0.8,1-1c0.4-0.2,0.9-0.4,1.4-0.4
	c0.4,0,0.8,0.2,1.1,0.6c0.3,0.4,0.5,0.9,0.5,1.6c0,0.7-0.1,1.4-0.3,2.2c0.5-0.2,1.1-0.5,1.6-0.9c0.5-0.4,1.1-0.9,1.6-1.5
	c0.5-0.6,1-1.2,1.4-1.9c0.1-0.2,0.3-0.3,0.4-0.3c0.2,0,0.3,0.1,0.4,0.2c0.1,0.1,0.2,0.2,0.2,0.4c0,0,0,0.2-0.1,0.5
	c0,0.3-0.1,0.6-0.2,1.1c-0.1,0.4-0.2,0.9-0.3,1.4c-0.1,0.5-0.2,1-0.3,1.6c-0.1,0.5-0.2,1-0.2,1.5c0.2-0.4,0.5-0.9,0.8-1.4
	c0.3-0.5,0.6-1,0.9-1.5c0.3-0.5,0.6-0.9,0.9-1.3c0.3-0.4,0.5-0.7,0.7-1c0.2-0.2,0.4-0.4,0.5-0.4c0.2,0,0.4,0.1,0.6,0.2
	c0.2,0.2,0.3,0.3,0.3,0.5c0,0.2,0,0.6-0.1,1c0,0.4-0.1,0.9-0.2,1.5c-0.1,0.6-0.1,1.1-0.2,1.7c-0.1,0.6-0.1,1.1-0.2,1.5
	c0,0.5-0.1,0.8-0.1,1c0,0.1-0.1,0.3-0.2,0.4c-0.1,0.1-0.3,0.2-0.4,0.2c-0.1,0-0.2,0-0.3-0.1c-0.1-0.1-0.1-0.2-0.2-0.4
	c0-0.2-0.1-0.5-0.1-1c0-0.4,0-0.9,0-1.4c0-0.5,0.1-1,0.1-1.5c0.1-0.5,0.1-1,0.2-1.4c-0.2,0.4-0.5,0.8-0.8,1.3
	c-0.3,0.5-0.6,1-0.9,1.6c-0.3,0.5-0.6,1-0.9,1.5c-0.3,0.5-0.5,0.9-0.8,1.1C476.1,169.6,475.9,169.7,475.8,169.7z M470.8,165.4
	c0.1-0.4,0.2-0.8,0.3-1.2c0.1-0.4,0.1-0.8,0.1-1.3c0-0.2,0-0.5-0.1-0.6c-0.1-0.2-0.2-0.2-0.4-0.2c-0.3,0-0.5,0.1-0.7,0.2
	c-0.2,0.1-0.4,0.3-0.6,0.6c-0.2,0.2-0.2,0.5-0.2,0.9c0,0.4,0.2,0.8,0.5,1.1C469.9,165.2,470.3,165.3,470.8,165.4z M470.4,166.4
	c-0.7,0-1.2-0.2-1.6-0.6c0,0.1,0,0.2-0.1,0.4c0,0.1,0,0.2,0,0.3c0,0.3,0,0.5,0.1,0.7c0.1,0.2,0.3,0.2,0.5,0.2c0.2,0,0.4-0.1,0.5-0.3
	C470,166.9,470.2,166.7,470.4,166.4z M491.2,170.5c-0.2,0-0.3-0.1-0.4-0.2c-0.1-0.1-0.1-0.3-0.1-0.6c0-0.5,0-1,0.1-1.5
	c0.1-0.5,0.1-1,0.1-1.4c0-1-0.1-1.8-0.3-2.5c-0.2-0.7-0.6-1.1-1.1-1.3c-0.1,0-0.2-0.1-0.3-0.2c-0.1-0.1-0.1-0.1-0.1-0.3
	c0-0.1,0.1-0.2,0.2-0.3c0.1-0.1,0.3-0.1,0.5-0.1c0.2,0,0.5,0,0.9,0c0.4,0,0.8,0,1.2,0.1c0.3-1.1,0.6-2,1-2.7
	c0.4-0.7,0.8-1.3,1.2-1.7c0.5-0.4,0.9-0.7,1.4-0.9c0.5-0.2,1-0.3,1.6-0.3c0.2,0,0.4,0,0.5,0.1c0.1,0.1,0.1,0.1,0.1,0.3
	c0,0.2,0,0.3-0.1,0.5c-0.1,0.2-0.3,0.3-0.6,0.3c-0.7,0.1-1.2,0.3-1.7,0.6c-0.5,0.3-1,0.8-1.3,1.3c-0.4,0.6-0.7,1.3-0.9,2.3
	c0.9,0,1.7-0.1,2.4-0.1c0.7-0.1,1.2-0.2,1.7-0.3c0.5-0.1,0.8-0.2,1.1-0.3c0.3-0.1,0.5-0.1,0.6-0.1c0.2,0,0.3,0,0.3,0.1
	c0,0.1,0.1,0.2,0.1,0.3c0,0.2-0.2,0.4-0.5,0.5c-0.3,0.2-0.8,0.3-1.4,0.4c-0.6,0.1-1.2,0.2-1.9,0.3c-0.7,0.1-1.3,0.1-2,0.1
	c-0.1,0-0.2,0-0.3,0c-0.1,0-0.2,0-0.3,0c0,0.1,0,0.1,0,0.2c-0.1,0.6-0.2,1.2-0.3,1.8c-0.1,0.6-0.2,1.2-0.2,1.8
	c-0.1,0.6-0.1,1.1-0.2,1.6c0,0.5-0.1,0.9-0.1,1.2c0,0.2-0.1,0.4-0.2,0.6C491.5,170.4,491.3,170.5,491.2,170.5z M491.5,163.1
	c-0.3,0-0.5-0.1-0.8-0.1c0.1,0.1,0.2,0.3,0.3,0.5c0.1,0.2,0.2,0.4,0.2,0.6C491.4,163.7,491.4,163.4,491.5,163.1z M498.6,169.3
	c-0.6,0-1-0.2-1.3-0.6c-0.3-0.4-0.5-1-0.5-1.7c0-0.2,0-0.5,0.1-0.8c0.1-0.3,0.2-0.5,0.3-0.8c-0.1-0.1-0.1-0.2-0.2-0.3
	c0-0.1-0.1-0.3-0.1-0.5c0-0.6,0.1-1.1,0.3-1.6c0.2-0.5,0.4-0.9,0.8-1.2c0.3-0.4,0.7-0.6,1.1-0.8c0.4-0.2,0.8-0.3,1.2-0.3
	c0.7,0,1.2,0.2,1.6,0.7c0.4,0.5,0.6,1.2,0.6,2.2c0,0.5-0.1,1-0.2,1.6c-0.1,0.5-0.3,1-0.6,1.5c-0.3,0.5-0.5,0.9-0.9,1.3
	c-0.3,0.4-0.7,0.7-1.1,0.9C499.3,169.2,498.9,169.3,498.6,169.3z M498.1,164.9c0.1,0.1,0.1,0.2,0.1,0.3c0,0.1,0,0.3-0.1,0.4
	c0,0.1-0.1,0.3-0.2,0.6c-0.1,0.3-0.1,0.6-0.1,1.1c0,0.5,0.2,0.7,0.5,0.7c0.4,0,0.8-0.2,1.1-0.5c0.3-0.3,0.7-0.7,0.9-1.3
	s0.5-1.1,0.6-1.6c0.2-0.6,0.2-1.1,0.2-1.7c0-0.3-0.1-0.6-0.2-0.7c-0.1-0.1-0.4-0.2-0.7-0.2c-0.3,0-0.7,0.1-1.1,0.3
	c-0.4,0.2-0.7,0.5-0.9,0.9s-0.4,0.8-0.4,1.3C498.1,164.7,498.1,164.8,498.1,164.9z M504.5,169.5c-0.2,0-0.3-0.1-0.4-0.2
	c-0.1-0.1-0.2-0.3-0.2-0.5c0-0.2,0-0.4,0.1-0.8c0.1-0.4,0.2-0.8,0.2-1.3c0.1-0.5,0.2-1,0.2-1.6c0.1-0.6,0.1-1.1,0.1-1.6
	c0-0.3,0.1-0.4,0.2-0.6c0.1-0.1,0.3-0.2,0.4-0.2c0.2,0,0.3,0.1,0.3,0.3c0.1,0.2,0.1,0.6,0,1.2c0.4-1,0.9-1.8,1.5-2.4
	c0.5-0.6,1.1-1,1.6-1.3c0.5-0.3,1-0.4,1.4-0.4c0.3,0,0.5,0.1,0.6,0.2c0.1,0.1,0.2,0.2,0.2,0.4c0,0.2-0.1,0.3-0.2,0.4
	c-0.1,0.1-0.4,0.2-0.8,0.3c-0.4,0.2-0.8,0.4-1.2,0.6c-0.3,0.2-0.7,0.5-1,0.8c-0.3,0.3-0.6,0.8-0.9,1.3c-0.3,0.5-0.6,1.2-0.9,2
	c-0.3,0.8-0.6,1.7-1,2.8c-0.1,0.2-0.1,0.4-0.2,0.4C504.8,169.4,504.7,169.5,504.5,169.5z M520.5,169.4c-0.5,0-0.9-0.1-1.2-0.3
	c-0.3-0.2-0.6-0.5-0.8-0.9c-0.2-0.3-0.3-0.7-0.3-1.1c0-0.8,0.1-1.5,0.4-2.1c0.3-0.6,0.6-1.2,1-1.7c0.4-0.5,0.8-0.9,1.3-1.3
	c0.4-0.3,0.8-0.6,1.2-0.8c0.4-0.2,0.6-0.3,0.8-0.3c0.3,0,0.5,0.2,0.5,0.5c0,0.1-0.1,0.3-0.3,0.5c-0.2,0.2-0.4,0.4-0.7,0.6
	c-0.3,0.3-0.6,0.5-1,0.9c-0.3,0.3-0.7,0.7-1,1.1c-0.3,0.4-0.5,0.8-0.7,1.3c-0.2,0.5-0.3,1-0.3,1.6c0,0.6,0.2,0.9,0.7,0.9
	c0.4,0,0.9-0.1,1.3-0.2c0.5-0.2,0.9-0.4,1.4-0.6c0.5-0.3,0.9-0.6,1.3-0.8c0.4-0.3,0.8-0.6,1.1-0.8c0.3-0.3,0.6-0.5,0.9-0.6
	c0.2-0.2,0.4-0.2,0.5-0.2c0.2,0,0.3,0.1,0.3,0.3c0,0.2-0.1,0.4-0.3,0.7s-0.5,0.6-0.9,0.9c-0.4,0.3-0.8,0.6-1.3,1
	c-0.5,0.3-0.9,0.6-1.4,0.9c-0.5,0.3-0.9,0.5-1.4,0.6C521.2,169.3,520.8,169.4,520.5,169.4z M526.9,169.6c-0.4,0-0.7-0.2-0.9-0.5
	c-0.2-0.3-0.3-0.8-0.3-1.3c0-0.5,0.1-1,0.4-1.5c0.3-0.5,0.6-1,1-1.4c0.4-0.5,0.9-0.9,1.4-1.3c0.5-0.4,1-0.7,1.5-1
	c0.5-0.3,1-0.5,1.4-0.7c0.4-0.2,0.8-0.2,1-0.2c0.1,0,0.2,0,0.3,0.1c0.1,0,0.1,0.1,0.1,0.3c0,0.1,0,0.2-0.1,0.2c0,0,0,0,0,0
	c0.2,0,0.3,0.1,0.3,0.4c0,0.1,0,0.3-0.1,0.5c-0.1,0.3-0.1,0.6-0.2,1c-0.1,0.4-0.2,0.8-0.2,1.3c-0.1,0.5-0.1,1-0.1,1.4
	c0,0.4,0.2,0.6,0.5,0.6c0.4,0,0.7-0.1,1.1-0.2c0.4-0.2,0.7-0.4,1.1-0.6c0.3-0.2,0.7-0.5,1-0.7c0.3-0.2,0.5-0.4,0.7-0.6
	c0.2-0.2,0.3-0.2,0.4-0.2c0.1,0,0.1,0,0.2,0.1c0.1,0,0.1,0.1,0.1,0.2c0,0.1-0.1,0.3-0.3,0.5c-0.2,0.3-0.4,0.5-0.8,0.9
	c-0.3,0.3-0.7,0.6-1.1,0.9c-0.4,0.3-0.8,0.5-1.2,0.7c-0.4,0.2-0.8,0.3-1.2,0.3c-0.3,0-0.6-0.1-0.8-0.3c-0.2-0.2-0.4-0.5-0.6-0.9
	c-0.1-0.4-0.2-1-0.2-1.8v-0.4c-0.5,0.8-1,1.5-1.5,2.1c-0.5,0.6-1,1.2-1.5,1.5C527.8,169.4,527.3,169.6,526.9,169.6z M532.1,162.6
	c0,0-0.1,0-0.2,0.1c-0.4,0.2-0.9,0.5-1.4,0.8c-0.5,0.3-0.9,0.6-1.4,1c-0.4,0.4-0.8,0.7-1.2,1.1c-0.4,0.4-0.6,0.8-0.9,1.2
	c-0.2,0.4-0.3,0.8-0.3,1.2c0,0.1,0,0.2,0.1,0.3c0.1,0.1,0.2,0.1,0.3,0.1c0.2,0,0.4-0.1,0.8-0.4c0.3-0.3,0.6-0.6,1-1
	c0.4-0.4,0.8-0.9,1.1-1.3c0.4-0.5,0.7-1,1.1-1.5c0.3-0.5,0.6-1,0.9-1.4C532,162.7,532,162.6,532.1,162.6z M536.6,173.5
	c-0.2,0-0.3-0.1-0.4-0.2c-0.1-0.1-0.1-0.3-0.1-0.7c0-0.5,0-1,0.1-1.6c0.1-0.6,0.2-1.3,0.3-2c0.1-0.7,0.3-1.4,0.4-2.1
	c0.2-0.7,0.3-1.4,0.5-2c0.2-0.6,0.3-1.2,0.5-1.7c0.2-0.5,0.3-0.9,0.4-1.2c0.1-0.3,0.3-0.4,0.4-0.4c0.2,0,0.3,0.1,0.4,0.2
	c0.1,0.1,0.2,0.3,0.2,0.5c0,0.3-0.1,0.7-0.2,1.3c-0.2,0.6-0.4,1.4-0.6,2.3c0.2-0.4,0.5-0.9,0.8-1.4c0.3-0.5,0.6-0.9,0.9-1.4
	c0.3-0.5,0.6-0.9,0.9-1.2c0.3-0.4,0.6-0.7,0.9-0.9c0.3-0.2,0.6-0.3,0.9-0.3c0.3,0,0.6,0.1,0.8,0.3c0.2,0.2,0.4,0.4,0.5,0.8
	c0.1,0.3,0.2,0.7,0.2,1c0,0.8-0.1,1.6-0.4,2.3c-0.3,0.7-0.6,1.4-1.1,2c-0.5,0.6-1,1.1-1.7,1.4c-0.6,0.3-1.3,0.5-2.1,0.5
	c-0.3,0-0.5,0-0.8,0c-0.2,0-0.4-0.1-0.6-0.1c-0.1,0.6-0.2,1.3-0.3,2c-0.1,0.7-0.2,1.4-0.3,2.2c0,0.2-0.1,0.3-0.1,0.4
	C536.8,173.4,536.7,173.5,536.6,173.5z M543,161.7c-0.2,0-0.4,0.1-0.7,0.3c-0.3,0.2-0.6,0.5-0.9,0.9c-0.3,0.4-0.6,0.8-0.9,1.3
	c-0.3,0.5-0.6,0.9-0.9,1.4s-0.6,0.9-0.8,1.3c-0.2,0.4-0.4,0.7-0.6,1c0.8,0,1.4-0.2,2-0.4c0.6-0.3,1.1-0.7,1.5-1.1
	c0.4-0.5,0.7-0.9,1-1.5c0.3-0.5,0.4-1,0.6-1.5c0.1-0.5,0.2-0.9,0.2-1.3C543.3,161.9,543.2,161.7,543,161.7z M544.9,164.6
	c-0.3,0-0.4-0.2-0.4-0.5c0-0.1,0.1-0.2,0.2-0.3c0.1-0.1,0.2-0.2,0.3-0.2c0.3,0,0.7-0.1,1.1-0.1c0.4-0.1,0.9-0.1,1.5-0.2
	c0.1-0.5,0.2-1,0.3-1.5c0.1-0.5,0.3-1,0.4-1.5c0.2-0.5,0.3-1,0.5-1.4s0.4-0.7,0.6-1c0.1-0.1,0.2-0.2,0.3-0.2c0.1,0,0.2-0.1,0.2-0.1
	c0.1,0,0.2,0.1,0.3,0.2c0.1,0.1,0.1,0.2,0.1,0.4c0,0.1,0,0.2,0,0.2c-0.2,0.5-0.4,1.2-0.6,2c-0.2,0.8-0.5,1.7-0.7,2.6
	c0.9-0.1,1.8-0.3,2.7-0.5c0.9-0.2,1.6-0.3,2.3-0.4c0.2-0.1,0.3-0.1,0.4,0c0.1,0.1,0.2,0.2,0.2,0.3c0,0.1,0,0.2-0.1,0.3
	c-0.1,0.1-0.1,0.1-0.2,0.2l0,0c-0.2,0.1-0.5,0.2-0.9,0.3c-0.4,0.1-0.8,0.2-1.3,0.3c-0.5,0.1-1,0.2-1.6,0.3c-0.6,0.1-1.1,0.2-1.7,0.3
	c-0.2,0.8-0.4,1.7-0.7,2.6c-0.2,0.9-0.4,1.8-0.7,2.6c-0.1,0.3-0.2,0.6-0.3,0.7c-0.1,0.1-0.2,0.1-0.4,0.1c-0.2,0-0.3-0.1-0.4-0.2
	c-0.1-0.1-0.1-0.4,0-0.7l1.1-4.9c-0.6,0.1-1.1,0.1-1.5,0.2C545.4,164.6,545.1,164.6,544.9,164.6z M553.2,169.3
	c-0.2,0-0.3-0.1-0.5-0.2c-0.1-0.1-0.2-0.4-0.2-0.7c0-0.2,0-0.5,0.1-0.9c0.1-0.4,0.1-0.8,0.2-1.3c0.1-0.5,0.2-0.9,0.3-1.3
	c0.1-0.5,0.2-0.9,0.3-1.2c0.1-0.4,0.2-0.6,0.3-0.8c0.1-0.1,0.1-0.2,0.2-0.3c0.1,0,0.1-0.1,0.2-0.1c0.1,0,0.2,0,0.3,0.1
	c0.1,0.1,0.2,0.3,0.2,0.5c0,0.1,0,0.4-0.1,0.7c0,0.3-0.1,0.7-0.2,1.2c-0.1,0.4-0.2,0.9-0.3,1.3c-0.1,0.5-0.2,0.9-0.3,1.3
	c-0.1,0.4-0.2,0.8-0.2,1c0,0.2-0.1,0.3-0.2,0.4C553.4,169.2,553.3,169.3,553.2,169.3z M554.6,161.3c-0.2,0-0.4-0.1-0.6-0.2
	c-0.2-0.1-0.3-0.4-0.3-0.6c0-0.3,0.1-0.5,0.2-0.6c0.1-0.2,0.3-0.3,0.4-0.3c0.2-0.1,0.3-0.1,0.4-0.1s0.3,0,0.4,0.1
	c0.2,0,0.3,0.1,0.4,0.3c0.1,0.1,0.2,0.3,0.2,0.6c0,0.2-0.1,0.3-0.2,0.5c-0.1,0.1-0.3,0.2-0.5,0.3C555,161.2,554.8,161.3,554.6,161.3
	z M558.5,168.8c-0.1,0-0.3-0.1-0.4-0.3c-0.1-0.2-0.2-0.5-0.3-0.9c-0.1-0.4-0.1-0.9-0.2-1.4c-0.1-0.5-0.1-1-0.1-1.5
	c0-0.5-0.1-0.9-0.1-1.3c0-0.4,0-0.6,0-0.8c0-0.5,0.1-0.9,0.2-1.1c0.2-0.3,0.4-0.4,0.6-0.4c0.2,0,0.3,0,0.4,0.1
	c0.1,0.1,0.1,0.3,0.1,0.6c0,0.2,0,0.5,0,0.8c0,0.3,0,0.7,0,1.1c0,0.5,0,1,0.1,1.5c0,0.5,0,1,0,1.5c0.2-0.4,0.5-0.8,0.8-1.3
	c0.3-0.5,0.6-1,0.9-1.4c0.3-0.5,0.6-1,0.9-1.4c0.3-0.5,0.6-0.8,0.8-1.2c0.2-0.3,0.4-0.6,0.5-0.7c0.2-0.2,0.3-0.3,0.4-0.4
	c0.1-0.1,0.3-0.1,0.4-0.1c0.1,0,0.3,0.1,0.3,0.2c0.1,0.1,0.1,0.3,0.1,0.4c0,0.1,0,0.2-0.1,0.4c0,0.1-0.1,0.3-0.2,0.4
	c-0.3,0.4-0.6,0.9-0.9,1.4c-0.4,0.5-0.7,1.1-1.1,1.6c-0.4,0.6-0.8,1.1-1.2,1.7c-0.4,0.5-0.7,1-1,1.4
	C559.2,168.5,558.8,168.8,558.5,168.8z M565,169.6c-0.4,0-0.7-0.2-0.9-0.5c-0.2-0.3-0.3-0.8-0.3-1.3c0-0.5,0.1-1,0.4-1.5
	c0.3-0.5,0.6-1,1-1.4s0.9-0.9,1.4-1.3c0.5-0.4,1-0.7,1.5-1c0.5-0.3,1-0.5,1.4-0.7c0.4-0.2,0.8-0.2,1-0.2c0.1,0,0.2,0,0.3,0.1
	c0.1,0,0.1,0.1,0.1,0.3c0,0.1,0,0.2-0.1,0.2c0,0,0,0,0,0c0.2,0,0.3,0.1,0.3,0.4c0,0.1,0,0.3-0.1,0.5c-0.1,0.3-0.1,0.6-0.2,1
	c-0.1,0.4-0.2,0.8-0.2,1.3c-0.1,0.5-0.1,1-0.1,1.4c0,0.4,0.2,0.6,0.5,0.6c0.4,0,0.7-0.1,1.1-0.2c0.4-0.2,0.7-0.4,1.1-0.6
	c0.3-0.2,0.7-0.5,1-0.7c0.3-0.2,0.5-0.4,0.7-0.6c0.2-0.2,0.3-0.2,0.4-0.2c0.1,0,0.1,0,0.2,0.1c0.1,0,0.1,0.1,0.1,0.2
	c0,0.1-0.1,0.3-0.3,0.5c-0.2,0.3-0.4,0.5-0.8,0.9c-0.3,0.3-0.7,0.6-1.1,0.9s-0.8,0.5-1.2,0.7c-0.4,0.2-0.8,0.3-1.2,0.3
	c-0.3,0-0.6-0.1-0.8-0.3c-0.2-0.2-0.4-0.5-0.6-0.9c-0.1-0.4-0.2-1-0.2-1.8v-0.4c-0.5,0.8-1,1.5-1.5,2.1c-0.5,0.6-1,1.2-1.5,1.5
	C565.9,169.4,565.4,169.6,565,169.6z M570.2,162.6c0,0-0.1,0-0.2,0.1c-0.4,0.2-0.9,0.5-1.4,0.8c-0.5,0.3-0.9,0.6-1.4,1
	c-0.4,0.4-0.8,0.7-1.2,1.1c-0.4,0.4-0.6,0.8-0.9,1.2c-0.2,0.4-0.3,0.8-0.3,1.2c0,0.1,0,0.2,0.1,0.3c0.1,0.1,0.2,0.1,0.3,0.1
	c0.2,0,0.4-0.1,0.8-0.4c0.3-0.3,0.6-0.6,1-1c0.4-0.4,0.8-0.9,1.1-1.3c0.4-0.5,0.7-1,1.1-1.5c0.3-0.5,0.6-1,0.9-1.4
	C570.1,162.7,570.1,162.6,570.2,162.6z M573.5,164.6c-0.3,0-0.4-0.2-0.4-0.5c0-0.1,0.1-0.2,0.2-0.3c0.1-0.1,0.2-0.2,0.3-0.2
	c0.3,0,0.7-0.1,1.1-0.1c0.4-0.1,0.9-0.1,1.5-0.2c0.1-0.5,0.2-1,0.3-1.5c0.1-0.5,0.3-1,0.4-1.5c0.2-0.5,0.3-1,0.5-1.4
	c0.2-0.4,0.4-0.7,0.6-1c0.1-0.1,0.2-0.2,0.3-0.2c0.1,0,0.2-0.1,0.2-0.1c0.1,0,0.2,0.1,0.3,0.2c0.1,0.1,0.1,0.2,0.1,0.4
	c0,0.1,0,0.2,0,0.2c-0.2,0.5-0.4,1.2-0.6,2c-0.2,0.8-0.5,1.7-0.7,2.6c0.9-0.1,1.8-0.3,2.7-0.5c0.9-0.2,1.6-0.3,2.3-0.4
	c0.2-0.1,0.3-0.1,0.4,0c0.1,0.1,0.2,0.2,0.2,0.3c0,0.1,0,0.2-0.1,0.3c-0.1,0.1-0.1,0.1-0.2,0.2l0,0c-0.2,0.1-0.5,0.2-0.9,0.3
	c-0.4,0.1-0.8,0.2-1.3,0.3c-0.5,0.1-1,0.2-1.6,0.3c-0.6,0.1-1.1,0.2-1.7,0.3c-0.2,0.8-0.4,1.7-0.7,2.6c-0.2,0.9-0.4,1.8-0.7,2.6
	c-0.1,0.3-0.2,0.6-0.3,0.7c-0.1,0.1-0.2,0.1-0.4,0.1c-0.2,0-0.3-0.1-0.4-0.2c-0.1-0.1-0.1-0.4,0-0.7l1.1-4.9
	c-0.6,0.1-1.1,0.1-1.5,0.2C574,164.6,573.7,164.6,573.5,164.6z M581.8,169.3c-0.2,0-0.3-0.1-0.5-0.2c-0.1-0.1-0.2-0.4-0.2-0.7
	c0-0.2,0-0.5,0.1-0.9c0.1-0.4,0.1-0.8,0.2-1.3c0.1-0.5,0.2-0.9,0.3-1.3c0.1-0.5,0.2-0.9,0.3-1.2c0.1-0.4,0.2-0.6,0.3-0.8
	c0.1-0.1,0.1-0.2,0.2-0.3c0.1,0,0.1-0.1,0.2-0.1c0.1,0,0.3,0,0.3,0.1c0.1,0.1,0.2,0.3,0.2,0.5c0,0.1,0,0.4-0.1,0.7
	c0,0.3-0.1,0.7-0.2,1.2c-0.1,0.4-0.2,0.9-0.3,1.3c-0.1,0.5-0.2,0.9-0.3,1.3c-0.1,0.4-0.2,0.8-0.2,1c0,0.2-0.1,0.3-0.2,0.4
	C582,169.2,581.9,169.3,581.8,169.3z M583.2,161.3c-0.2,0-0.4-0.1-0.6-0.2c-0.2-0.1-0.3-0.4-0.3-0.6c0-0.3,0.1-0.5,0.2-0.6
	c0.1-0.2,0.3-0.3,0.4-0.3c0.2-0.1,0.3-0.1,0.4-0.1c0.1,0,0.3,0,0.4,0.1c0.2,0,0.3,0.1,0.4,0.3c0.1,0.1,0.2,0.3,0.2,0.6
	c0,0.2-0.1,0.3-0.2,0.5c-0.1,0.1-0.3,0.2-0.5,0.3C583.6,161.2,583.4,161.3,583.2,161.3z M586.5,168.9c-0.3,0-0.5-0.2-0.8-0.5
	c-0.2-0.3-0.3-0.7-0.3-1.2c0-0.5,0.1-1.1,0.2-1.8c0.2-0.6,0.3-1.3,0.6-1.9c0.2-0.7,0.4-1.3,0.7-1.9c0-0.1,0.1-0.2,0.2-0.3
	c0.1-0.1,0.2-0.1,0.4-0.1c0.3,0,0.5,0.2,0.5,0.5c0,0.1,0,0.2-0.1,0.5c-0.1,0.3-0.2,0.6-0.3,1c-0.1,0.4-0.2,0.8-0.4,1.3
	c-0.1,0.5-0.2,0.9-0.3,1.4c-0.1,0.5-0.2,0.9-0.2,1.3c0.2-0.2,0.3-0.4,0.5-0.8c0.2-0.3,0.4-0.7,0.7-1.1c0.2-0.4,0.5-0.9,0.7-1.3
	c0.2-0.4,0.5-0.8,0.8-1.2c0.3-0.4,0.5-0.7,0.8-0.9c0.2-0.2,0.5-0.3,0.7-0.3c0.3,0,0.6,0.1,0.8,0.3c0.2,0.2,0.4,0.5,0.5,1
	c0.1,0.5,0.2,1.1,0.2,2c0,0.5,0,0.9,0.1,1.3c0.1,0.4,0.2,0.7,0.4,1c0.2,0.2,0.5,0.3,0.8,0.3c0.5,0,0.9-0.1,1.3-0.3
	c0.4-0.2,0.7-0.4,1-0.6c0.3-0.2,0.5-0.4,0.7-0.6c0.2-0.2,0.3-0.3,0.4-0.3c0.2,0,0.3,0.1,0.3,0.3c0,0.1-0.1,0.3-0.2,0.5
	c-0.1,0.2-0.3,0.4-0.6,0.7c-0.2,0.2-0.5,0.5-0.8,0.7c-0.3,0.2-0.6,0.4-1,0.6c-0.3,0.2-0.7,0.2-1.1,0.2c-0.7,0-1.2-0.1-1.6-0.4
	c-0.4-0.3-0.7-0.7-0.9-1.3c-0.2-0.6-0.3-1.4-0.3-2.4c0-0.5,0-0.9-0.1-1.2c-0.1-0.3-0.2-0.4-0.3-0.5c-0.1,0.2-0.3,0.5-0.4,0.9
	c-0.2,0.4-0.4,0.8-0.6,1.2c-0.2,0.5-0.5,0.9-0.7,1.4c-0.2,0.5-0.5,0.9-0.8,1.3c-0.3,0.4-0.5,0.7-0.8,0.9
	C586.9,168.7,586.7,168.9,586.5,168.9z M597.4,173c-0.7,0-1.3-0.1-1.6-0.2c-0.3-0.1-0.5-0.3-0.5-0.6c0-0.2,0-0.3,0.1-0.4
	c0.1-0.1,0.2-0.1,0.4-0.1c0.2,0,0.4,0,0.7,0.1c0.3,0.1,0.6,0.1,0.9,0.1c1,0,1.8-0.3,2.4-0.9c0.6-0.6,1.1-1.5,1.5-2.7
	c0.3-1.2,0.6-2.8,0.7-4.7c-0.3,0.6-0.6,1.2-1,1.8c-0.4,0.6-0.7,1.1-1.2,1.6c-0.4,0.5-0.8,0.9-1.3,1.1c-0.4,0.3-0.9,0.4-1.3,0.4
	c-0.4,0-0.7-0.1-0.9-0.3c-0.2-0.2-0.3-0.5-0.3-1c0-0.4,0.1-0.9,0.3-1.3c0.2-0.5,0.5-0.9,0.9-1.4c0.4-0.5,0.8-0.9,1.3-1.3
	c0.5-0.4,0.9-0.8,1.4-1.1c0.5-0.3,0.9-0.6,1.3-0.8c0.4-0.2,0.7-0.3,1-0.3c0.3,0,0.4,0.1,0.6,0.3c0.1,0.2,0.2,0.5,0.2,1
	c0,1.1,0,2.2-0.1,3.3c-0.1,1.1-0.2,2-0.4,3c-0.2,0.9-0.5,1.7-1,2.4c-0.4,0.7-1,1.2-1.7,1.6C599.3,172.8,598.5,173,597.4,173z
	 M601.8,162.2c-0.5,0.3-1,0.7-1.5,1c-0.5,0.4-1,0.8-1.4,1.2c-0.4,0.4-0.8,0.9-1.1,1.3c-0.3,0.5-0.4,0.9-0.4,1.4
	c0,0.1,0.1,0.2,0.3,0.2c0.1,0,0.3-0.1,0.6-0.3c0.3-0.2,0.5-0.5,0.9-0.9c0.3-0.4,0.6-0.8,1-1.3c0.3-0.5,0.7-0.9,0.9-1.4
	S601.6,162.6,601.8,162.2z M616,169.8c-0.7,0-1.3-0.2-1.7-0.7c-0.4-0.5-0.6-1.2-0.6-2.1c0-0.5,0.1-1.2,0.2-1.9
	c0.2-0.7,0.3-1.5,0.6-2.3c0.2-0.8,0.5-1.6,0.8-2.4c0.3-0.8,0.5-1.5,0.8-2.2c0.3-0.7,0.5-1.3,0.7-1.7c0.1-0.3,0.3-0.4,0.5-0.4
	c0.3,0,0.4,0.2,0.4,0.5c0,0.1-0.1,0.4-0.2,0.7c-0.1,0.4-0.2,0.8-0.4,1.3c-0.2,0.5-0.4,1.1-0.6,1.7c-0.2,0.6-0.4,1.3-0.6,2
	c-0.2,0.7-0.4,1.3-0.6,2c-0.2,0.6-0.3,1.3-0.4,1.8c-0.1,0.6-0.2,1.1-0.2,1.5c0,0.3,0.1,0.5,0.2,0.6c0.1,0.1,0.3,0.2,0.6,0.2
	c0.4,0,0.9-0.1,1.3-0.3c0.5-0.2,0.9-0.4,1.3-0.7c0.4-0.3,0.8-0.5,1.1-0.8c0.3-0.3,0.6-0.5,0.9-0.7c0.2-0.2,0.4-0.3,0.5-0.3
	c0.2,0,0.3,0.1,0.3,0.3c0,0.1-0.1,0.2-0.2,0.4c-0.2,0.2-0.4,0.4-0.6,0.7c-0.3,0.3-0.6,0.6-0.9,0.9c-0.3,0.3-0.7,0.6-1.1,0.8
	c-0.4,0.2-0.7,0.5-1.1,0.6C616.7,169.7,616.3,169.8,616,169.8z M622.1,169.3c-0.6,0-1-0.2-1.3-0.6c-0.3-0.4-0.5-1-0.5-1.7
	c0-0.2,0-0.5,0.1-0.8c0.1-0.3,0.2-0.5,0.3-0.8c-0.1-0.1-0.1-0.2-0.2-0.3c0-0.1-0.1-0.3-0.1-0.5c0-0.6,0.1-1.1,0.3-1.6
	c0.2-0.5,0.4-0.9,0.8-1.2c0.3-0.4,0.7-0.6,1.1-0.8c0.4-0.2,0.8-0.3,1.2-0.3c0.7,0,1.2,0.2,1.6,0.7c0.4,0.5,0.6,1.2,0.6,2.2
	c0,0.5-0.1,1-0.2,1.6c-0.1,0.5-0.3,1-0.6,1.5c-0.2,0.5-0.5,0.9-0.9,1.3c-0.3,0.4-0.7,0.7-1.1,0.9
	C622.8,169.2,622.5,169.3,622.1,169.3z M621.6,164.9c0.1,0.1,0.1,0.2,0.1,0.3c0,0.1,0,0.3-0.1,0.4c0,0.1-0.1,0.3-0.2,0.6
	c-0.1,0.3-0.1,0.6-0.1,1.1c0,0.5,0.2,0.7,0.5,0.7c0.4,0,0.8-0.2,1.1-0.5c0.3-0.3,0.7-0.7,0.9-1.3c0.3-0.5,0.5-1.1,0.6-1.6
	c0.2-0.6,0.2-1.1,0.2-1.7c0-0.3-0.1-0.6-0.2-0.7c-0.1-0.1-0.4-0.2-0.7-0.2c-0.3,0-0.7,0.1-1.1,0.3c-0.4,0.2-0.7,0.5-0.9,0.9
	c-0.2,0.4-0.4,0.8-0.4,1.3C621.6,164.7,621.6,164.8,621.6,164.9z M628.5,173c-0.7,0-1.3-0.1-1.6-0.2c-0.3-0.1-0.5-0.3-0.5-0.6
	c0-0.2,0-0.3,0.1-0.4c0.1-0.1,0.2-0.1,0.4-0.1c0.2,0,0.4,0,0.7,0.1c0.3,0.1,0.6,0.1,0.9,0.1c1,0,1.8-0.3,2.4-0.9
	c0.6-0.6,1.1-1.5,1.5-2.7c0.3-1.2,0.6-2.8,0.7-4.7c-0.3,0.6-0.6,1.2-1,1.8c-0.4,0.6-0.7,1.1-1.2,1.6c-0.4,0.5-0.8,0.9-1.3,1.1
	c-0.4,0.3-0.9,0.4-1.3,0.4c-0.4,0-0.7-0.1-0.9-0.3c-0.2-0.2-0.3-0.5-0.3-1c0-0.4,0.1-0.9,0.3-1.3c0.2-0.5,0.5-0.9,0.9-1.4
	c0.4-0.5,0.8-0.9,1.3-1.3c0.5-0.4,0.9-0.8,1.4-1.1c0.5-0.3,0.9-0.6,1.3-0.8c0.4-0.2,0.7-0.3,1-0.3c0.2,0,0.4,0.1,0.6,0.3
	c0.1,0.2,0.2,0.5,0.2,1c0,1.1,0,2.2-0.1,3.3c-0.1,1.1-0.2,2-0.4,3c-0.2,0.9-0.5,1.7-1,2.4c-0.4,0.7-1,1.2-1.7,1.6
	C630.4,172.8,629.5,173,628.5,173z M632.8,162.2c-0.5,0.3-1,0.7-1.5,1c-0.5,0.4-1,0.8-1.4,1.2c-0.4,0.4-0.8,0.9-1.1,1.3
	c-0.3,0.5-0.4,0.9-0.4,1.4c0,0.1,0.1,0.2,0.3,0.2c0.1,0,0.3-0.1,0.6-0.3c0.3-0.2,0.5-0.5,0.9-0.9c0.3-0.4,0.6-0.8,1-1.3
	c0.3-0.5,0.7-0.9,0.9-1.4S632.6,162.6,632.8,162.2z M638.8,169.3c-0.6,0-1-0.2-1.3-0.6c-0.3-0.4-0.5-1-0.5-1.7c0-0.2,0-0.5,0.1-0.8
	c0.1-0.3,0.2-0.5,0.3-0.8c-0.1-0.1-0.1-0.2-0.2-0.3c0-0.1-0.1-0.3-0.1-0.5c0-0.6,0.1-1.1,0.3-1.6c0.2-0.5,0.4-0.9,0.8-1.2
	c0.3-0.4,0.7-0.6,1.1-0.8c0.4-0.2,0.8-0.3,1.2-0.3c0.7,0,1.2,0.2,1.6,0.7c0.4,0.5,0.6,1.2,0.6,2.2c0,0.5-0.1,1-0.2,1.6
	c-0.1,0.5-0.3,1-0.6,1.5c-0.3,0.5-0.5,0.9-0.9,1.3c-0.3,0.4-0.7,0.7-1.1,0.9C639.5,169.2,639.1,169.3,638.8,169.3z M638.3,164.9
	c0.1,0.1,0.1,0.2,0.1,0.3c0,0.1,0,0.3-0.1,0.4c0,0.1-0.1,0.3-0.2,0.6c-0.1,0.3-0.1,0.6-0.1,1.1c0,0.5,0.2,0.7,0.5,0.7
	c0.4,0,0.8-0.2,1.1-0.5c0.3-0.3,0.7-0.7,0.9-1.3s0.5-1.1,0.6-1.6c0.2-0.6,0.2-1.1,0.2-1.7c0-0.3-0.1-0.6-0.2-0.7
	c-0.1-0.1-0.4-0.2-0.7-0.2c-0.3,0-0.7,0.1-1.1,0.3c-0.4,0.2-0.7,0.5-0.9,0.9c-0.2,0.4-0.4,0.8-0.4,1.3
	C638.3,164.7,638.3,164.8,638.3,164.9z M646.5,169.5c-0.2,0-0.4-0.1-0.5-0.2c-0.1-0.1-0.2-0.3-0.2-0.4c0-0.1,0.1-0.3,0.2-0.4
	c0.1-0.1,0.3-0.2,0.5-0.3c0.4-0.2,0.7-0.4,1.1-0.6c0.3-0.2,0.6-0.4,0.8-0.7c0.2-0.2,0.3-0.5,0.3-0.7c0-0.2-0.1-0.4-0.2-0.5
	c-0.1-0.1-0.3-0.2-0.6-0.2c-0.1,0-0.3,0-0.6,0.1c-0.3,0-0.5,0.1-0.9,0.2c-0.3,0.1-0.6,0.1-0.9,0.2c-0.3,0-0.5,0.1-0.7,0.1
	c-0.4,0-0.6-0.1-0.8-0.3c-0.2-0.2-0.3-0.4-0.3-0.7c0-0.2,0.1-0.4,0.3-0.7c0.2-0.3,0.4-0.7,0.7-1c0.3-0.4,0.6-0.8,1-1.2
	c0.4-0.4,0.7-0.7,1.1-1.1c0.4-0.3,0.7-0.6,1.1-0.8c0.3-0.2,0.6-0.3,0.8-0.3c0.2,0,0.4,0.1,0.5,0.2c0.1,0.1,0.2,0.3,0.2,0.5
	c0,0.2,0,0.3-0.1,0.4c-0.1,0.1-0.2,0.2-0.4,0.3c-0.2,0.1-0.4,0.1-0.8,0.1c-0.4,0.3-0.8,0.6-1.2,1c-0.4,0.4-0.8,0.8-1.1,1.2
	c-0.3,0.4-0.6,0.8-0.7,1.1c0.3-0.1,0.7-0.2,1.2-0.3c0.5-0.1,0.9-0.1,1.4-0.1c0.7,0,1.3,0.2,1.6,0.5c0.4,0.3,0.5,0.8,0.5,1.3
	c0,0.3-0.1,0.7-0.3,1.1c-0.2,0.4-0.5,0.7-0.8,1c-0.3,0.3-0.7,0.6-1.1,0.8C647.3,169.4,646.9,169.5,646.5,169.5z"/>
<path class="st4" d="M391.1,141.9h263.4c13.5,0,24.5,11,24.5,24.5l0,0c0,13.5-11,24.5-24.5,24.5H391.1c-13.5,0-24.5-11-24.5-24.5
	l0,0C366.6,152.9,377.6,141.9,391.1,141.9z"/>
<path class="st0" d="M391.1,204.7h263.4c13.5,0,24.5,11,24.5,24.5l0,0c0,13.5-11,24.5-24.5,24.5H391.1c-13.5,0-24.5-11-24.5-24.5
	l0,0C366.6,215.6,377.6,204.7,391.1,204.7z"/>
<path d="M402.9,222.4c-0.5,0-0.8-0.1-0.9-0.2c-0.1-0.1-0.2-0.2-0.2-0.4c0-0.1,0.1-0.2,0.2-0.4c0.2-0.1,0.4-0.2,0.6-0.3
	c0.3-0.1,0.6-0.1,1-0.2c0.4-0.1,0.8-0.1,1.3-0.2c0.4-0.1,0.9-0.1,1.3-0.1c0.4,0,0.8,0,1.1,0c0.5,0,0.8,0.1,1,0.3
	c0.2,0.2,0.3,0.3,0.3,0.4c0,0.1,0,0.2-0.1,0.3c-0.1,0.1-0.2,0.1-0.5,0.1c-0.1,0-0.3,0-0.6,0c-0.3,0-0.5,0.1-0.9,0.1
	c0,0.3,0,0.7-0.1,1.3c-0.1,0.5-0.1,1.2-0.3,1.9c-0.1,0.7-0.3,1.4-0.5,2.2c-0.2,0.8-0.4,1.5-0.7,2.3c-0.3,0.8-0.6,1.5-1,2.1
	c-0.4,0.6-0.8,1.2-1.2,1.6c-0.5,0.5-1,0.8-1.5,0.9c-0.2,0-0.3,0.1-0.4,0.1c-0.1,0-0.2,0-0.3,0c-0.1,0-0.2-0.1-0.3-0.2
	c-0.1-0.1-0.2-0.4-0.2-0.7c0-0.2,0.1-0.4,0.3-0.4c0.7-0.2,1.2-0.5,1.7-0.9c0.5-0.5,0.9-1.1,1.3-1.9c0.4-0.8,0.7-1.9,1-3.2
	c0.3-1.3,0.5-2.8,0.8-4.7c0-0.1,0-0.2,0.1-0.3c-0.4,0.1-0.8,0.1-1.2,0.2C403.4,222.4,403.1,222.4,402.9,222.4z M411.2,232.1
	c-0.6,0-1-0.2-1.3-0.7c-0.3-0.4-0.5-1-0.5-1.7c0-0.2,0-0.5,0.1-0.8c0.1-0.3,0.2-0.5,0.3-0.8c-0.1-0.1-0.1-0.2-0.2-0.3
	c0-0.1-0.1-0.3-0.1-0.5c0-0.6,0.1-1.1,0.3-1.6c0.2-0.5,0.4-0.9,0.8-1.2c0.3-0.4,0.7-0.6,1.1-0.8c0.4-0.2,0.8-0.3,1.2-0.3
	c0.7,0,1.2,0.2,1.6,0.7c0.4,0.5,0.6,1.2,0.6,2.2c0,0.5-0.1,1-0.2,1.6c-0.1,0.5-0.3,1-0.6,1.5c-0.3,0.5-0.5,0.9-0.9,1.3
	c-0.3,0.4-0.7,0.7-1.1,0.9C412,232,411.6,232.1,411.2,232.1z M410.7,227.7c0.1,0.1,0.1,0.2,0.1,0.3c0,0.1,0,0.3-0.1,0.4
	c0,0.1-0.1,0.3-0.2,0.6c-0.1,0.2-0.1,0.6-0.1,1.1c0,0.5,0.2,0.7,0.5,0.7c0.4,0,0.8-0.2,1.1-0.5c0.3-0.3,0.7-0.7,0.9-1.3
	s0.5-1.1,0.6-1.6c0.2-0.6,0.2-1.1,0.2-1.7c0-0.3-0.1-0.6-0.2-0.7c-0.1-0.1-0.4-0.2-0.7-0.2c-0.3,0-0.7,0.1-1.1,0.3
	c-0.4,0.2-0.7,0.5-0.9,0.9c-0.2,0.4-0.4,0.8-0.4,1.3C410.7,227.5,410.7,227.6,410.7,227.7z M417.3,232c-0.2,0-0.3-0.1-0.5-0.2
	c-0.1-0.1-0.2-0.4-0.2-0.7c0-0.2,0-0.5,0.1-0.9c0.1-0.4,0.1-0.8,0.2-1.3c0.1-0.5,0.2-0.9,0.3-1.3c0.1-0.5,0.2-0.9,0.3-1.2
	c0.1-0.4,0.2-0.6,0.3-0.8c0.1-0.1,0.1-0.2,0.2-0.3c0.1,0,0.1-0.1,0.2-0.1c0.1,0,0.2,0,0.3,0.1c0.1,0.1,0.2,0.3,0.2,0.5
	c0,0.1,0,0.4-0.1,0.7c0,0.3-0.1,0.7-0.2,1.2c-0.1,0.4-0.2,0.9-0.3,1.3c-0.1,0.5-0.2,0.9-0.3,1.3c-0.1,0.4-0.2,0.8-0.2,1
	c0,0.2-0.1,0.3-0.2,0.4C417.5,232,417.4,232,417.3,232z M418.7,224.1c-0.2,0-0.4-0.1-0.6-0.2c-0.2-0.1-0.3-0.4-0.3-0.7
	c0-0.2,0.1-0.5,0.2-0.6c0.1-0.2,0.3-0.3,0.4-0.3c0.2-0.1,0.3-0.1,0.4-0.1s0.3,0,0.4,0.1c0.2,0,0.3,0.1,0.4,0.3
	c0.1,0.1,0.2,0.3,0.2,0.6c0,0.2-0.1,0.3-0.2,0.5c-0.1,0.1-0.3,0.2-0.5,0.3C419,224,418.9,224.1,418.7,224.1z M422,231.6
	c-0.3,0-0.5-0.2-0.8-0.5c-0.2-0.3-0.3-0.7-0.3-1.2c0-0.5,0.1-1.1,0.2-1.8c0.2-0.6,0.3-1.3,0.6-1.9c0.2-0.7,0.4-1.3,0.6-1.9
	c0-0.1,0.1-0.2,0.2-0.3c0.1-0.1,0.2-0.1,0.4-0.1c0.3,0,0.5,0.2,0.5,0.5c0,0.1,0,0.3-0.1,0.5c-0.1,0.3-0.2,0.6-0.3,1
	c-0.1,0.4-0.2,0.8-0.4,1.3c-0.1,0.5-0.2,0.9-0.3,1.4c-0.1,0.5-0.2,0.9-0.2,1.3c0.2-0.2,0.3-0.4,0.5-0.8c0.2-0.3,0.4-0.7,0.7-1.1
	c0.2-0.4,0.5-0.9,0.7-1.3c0.2-0.4,0.5-0.8,0.8-1.2c0.3-0.4,0.5-0.7,0.8-0.9c0.3-0.2,0.5-0.3,0.7-0.3c0.3,0,0.6,0.1,0.8,0.3
	c0.2,0.2,0.4,0.5,0.5,1c0.1,0.5,0.2,1.1,0.2,2c0,0.5,0,0.9,0.1,1.3c0.1,0.4,0.2,0.7,0.4,1c0.2,0.2,0.5,0.3,0.8,0.3
	c0.5,0,0.9-0.1,1.3-0.3c0.4-0.2,0.7-0.4,1-0.6c0.3-0.2,0.5-0.4,0.7-0.6c0.2-0.2,0.3-0.3,0.4-0.3c0.2,0,0.3,0.1,0.3,0.3
	c0,0.1-0.1,0.2-0.2,0.5c-0.1,0.2-0.3,0.4-0.6,0.7c-0.2,0.3-0.5,0.5-0.8,0.7c-0.3,0.2-0.6,0.4-1,0.6c-0.3,0.2-0.7,0.2-1.1,0.2
	c-0.7,0-1.2-0.1-1.6-0.4c-0.4-0.3-0.7-0.7-0.9-1.3c-0.2-0.6-0.3-1.4-0.3-2.4c0-0.6,0-0.9-0.1-1.2c-0.1-0.3-0.2-0.4-0.3-0.5
	c-0.1,0.2-0.3,0.5-0.4,0.9c-0.2,0.4-0.4,0.8-0.6,1.2c-0.2,0.5-0.5,0.9-0.7,1.4c-0.3,0.5-0.5,0.9-0.8,1.3c-0.3,0.4-0.5,0.7-0.8,0.9
	C422.4,231.5,422.2,231.6,422,231.6z M443.5,232.3c-0.2,0-0.3-0.1-0.4-0.2c-0.1-0.1-0.2-0.4-0.2-0.6c0-0.3,0-0.8,0.1-1.4
	c0.1-0.6,0.3-1.4,0.5-2.4c-0.3,0.6-0.6,1.2-0.9,1.7c-0.3,0.6-0.6,1-1,1.3c-0.3,0.3-0.7,0.5-1.1,0.5c-0.4,0-0.7-0.1-1-0.4
	c-0.3-0.3-0.4-0.8-0.4-1.5c0-0.4,0-0.8,0.1-1.3c0.1-0.5,0.2-1,0.3-1.5c0.1-0.5,0.2-0.9,0.3-1.3c0.1-0.4,0.2-0.7,0.3-0.9
	c0.1-0.2,0.1-0.3,0.2-0.3c0.1-0.1,0.2-0.1,0.3-0.1c0.1,0,0.3,0.1,0.4,0.2c0.2,0.1,0.2,0.3,0.2,0.6c0,0.1,0,0.2-0.1,0.5
	c-0.1,0.2-0.1,0.5-0.2,0.9c-0.1,0.3-0.2,0.7-0.3,1.1c-0.1,0.4-0.2,0.8-0.2,1.2c-0.1,0.4-0.1,0.8-0.1,1.1c0,0.2,0,0.3,0.1,0.4
	c0,0.1,0.1,0.2,0.3,0.2c0.1,0,0.3-0.1,0.5-0.4c0.2-0.3,0.4-0.6,0.7-1.1c0.3-0.5,0.5-1,0.8-1.5c0.3-0.5,0.5-1.1,0.8-1.7
	c0.3-0.6,0.5-1.1,0.7-1.6c0.1-0.2,0.2-0.3,0.2-0.3c0.1,0,0.2-0.1,0.3-0.1c0.2,0,0.3,0.1,0.5,0.2c0.1,0.1,0.2,0.3,0.2,0.5
	c0,0.1,0,0.4-0.1,0.8c0,0.4-0.1,0.8-0.2,1.3c-0.1,0.5-0.2,1-0.3,1.5c-0.1,0.5-0.2,1.1-0.3,1.6c-0.1,0.5-0.2,1-0.3,1.4
	c-0.1,0.4-0.2,0.8-0.2,1c0,0.2-0.1,0.4-0.2,0.5C443.7,232.3,443.6,232.3,443.5,232.3z M449.3,232.3c-0.2,0-0.4-0.1-0.5-0.2
	c-0.1-0.1-0.2-0.2-0.2-0.4c0-0.1,0.1-0.3,0.2-0.4c0.1-0.1,0.3-0.2,0.5-0.3c0.4-0.2,0.7-0.4,1.1-0.6c0.3-0.2,0.6-0.4,0.8-0.7
	c0.2-0.2,0.3-0.5,0.3-0.7c0-0.2-0.1-0.4-0.2-0.5c-0.1-0.1-0.3-0.2-0.6-0.2c-0.1,0-0.3,0-0.6,0.1c-0.3,0-0.5,0.1-0.9,0.2
	c-0.3,0.1-0.6,0.1-0.9,0.2c-0.3,0-0.5,0.1-0.7,0.1c-0.4,0-0.6-0.1-0.8-0.3c-0.2-0.2-0.3-0.4-0.3-0.7c0-0.2,0.1-0.4,0.3-0.7
	c0.2-0.3,0.4-0.7,0.7-1c0.3-0.4,0.6-0.8,1-1.2c0.4-0.4,0.7-0.7,1.1-1.1c0.4-0.3,0.7-0.6,1.1-0.8c0.3-0.2,0.6-0.3,0.8-0.3
	c0.2,0,0.4,0.1,0.5,0.2c0.1,0.1,0.2,0.3,0.2,0.6c0,0.2,0,0.3-0.1,0.4c-0.1,0.1-0.2,0.2-0.4,0.3c-0.2,0.1-0.4,0.1-0.8,0.1
	c-0.4,0.3-0.8,0.6-1.2,1c-0.4,0.4-0.8,0.8-1.1,1.2c-0.3,0.4-0.6,0.8-0.7,1.1c0.3-0.1,0.7-0.2,1.2-0.3c0.5-0.1,0.9-0.1,1.4-0.1
	c0.7,0,1.3,0.2,1.6,0.5c0.4,0.3,0.5,0.8,0.5,1.3c0,0.3-0.1,0.7-0.3,1.1c-0.2,0.4-0.5,0.7-0.8,1c-0.3,0.3-0.7,0.6-1.1,0.8
	C450.1,232.2,449.7,232.3,449.3,232.3z M470,232.5c-0.3,0-0.5-0.1-0.6-0.3s-0.2-0.5-0.2-0.9c0-0.4,0-0.8,0.1-1.3
	c0.1-0.5,0.2-1.1,0.3-1.7c0.1-0.6,0.3-1.3,0.4-2c-0.6,0.8-1.2,1.4-2,1.9c-0.7,0.5-1.5,0.8-2.3,0.9c-0.2,0.5-0.4,0.9-0.7,1.3
	c-0.3,0.4-0.5,0.7-0.9,0.9c-0.3,0.2-0.6,0.3-1,0.3c-0.4,0-0.8-0.2-1.1-0.5c-0.3-0.3-0.4-0.8-0.4-1.5c0-0.4,0.1-0.8,0.2-1.2
	c0.1-0.4,0.2-0.6,0.4-0.8c-0.1-0.4-0.2-0.8-0.2-1.2c0-0.6,0.1-1.1,0.4-1.5c0.3-0.4,0.6-0.8,1-1c0.4-0.3,0.9-0.4,1.4-0.4
	c0.4,0,0.8,0.2,1.1,0.6c0.3,0.4,0.5,0.9,0.5,1.6c0,0.7-0.1,1.4-0.3,2.2c0.5-0.2,1.1-0.5,1.6-0.9c0.5-0.4,1.1-0.9,1.6-1.5
	c0.5-0.6,1-1.2,1.4-1.9c0.1-0.2,0.3-0.3,0.4-0.3c0.2,0,0.3,0.1,0.4,0.2c0.1,0.1,0.2,0.2,0.2,0.4c0,0,0,0.2-0.1,0.5
	c0,0.3-0.1,0.6-0.2,1.1c-0.1,0.4-0.2,0.9-0.3,1.4c-0.1,0.5-0.2,1-0.3,1.6c-0.1,0.5-0.2,1-0.2,1.5c0.2-0.4,0.5-0.9,0.8-1.4
	c0.3-0.5,0.6-1,0.9-1.5c0.3-0.5,0.6-0.9,0.9-1.3c0.3-0.4,0.5-0.7,0.7-1c0.2-0.3,0.4-0.4,0.5-0.4c0.2,0,0.4,0.1,0.6,0.2
	c0.2,0.2,0.3,0.3,0.3,0.5c0,0.2,0,0.6-0.1,1c0,0.4-0.1,0.9-0.2,1.5c-0.1,0.6-0.1,1.1-0.2,1.7c-0.1,0.6-0.1,1.1-0.2,1.5
	s-0.1,0.8-0.1,1c0,0.1-0.1,0.3-0.2,0.4c-0.1,0.1-0.3,0.2-0.4,0.2c-0.1,0-0.2,0-0.3-0.1c-0.1-0.1-0.1-0.2-0.2-0.4
	c0-0.2-0.1-0.5-0.1-1c0-0.4,0-0.9,0-1.4c0-0.5,0.1-1,0.1-1.5c0.1-0.5,0.1-1,0.2-1.4c-0.2,0.4-0.5,0.8-0.8,1.3
	c-0.3,0.5-0.6,1-0.9,1.6c-0.3,0.5-0.6,1-0.9,1.5s-0.5,0.9-0.8,1.1C470.3,232.3,470.1,232.5,470,232.5z M465,228.1
	c0.1-0.4,0.2-0.8,0.3-1.2c0.1-0.4,0.1-0.8,0.1-1.3c0-0.3,0-0.5-0.1-0.6c-0.1-0.2-0.2-0.2-0.4-0.2c-0.2,0-0.5,0.1-0.7,0.2
	c-0.2,0.1-0.4,0.3-0.6,0.6c-0.2,0.2-0.2,0.5-0.2,0.9c0,0.4,0.2,0.8,0.5,1.1C464.1,228,464.5,228.1,465,228.1z M464.6,229.1
	c-0.7,0-1.2-0.2-1.6-0.6c0,0.1,0,0.2-0.1,0.4c0,0.1,0,0.2,0,0.3c0,0.3,0,0.5,0.1,0.7c0.1,0.2,0.3,0.2,0.5,0.2c0.2,0,0.4-0.1,0.5-0.3
	C464.2,229.7,464.4,229.5,464.6,229.1z M483.3,227.3c-0.3,0-0.4-0.2-0.4-0.5c0-0.1,0.1-0.2,0.2-0.3c0.1-0.1,0.2-0.2,0.3-0.2
	c0.3,0,0.7-0.1,1.1-0.1c0.4-0.1,0.9-0.1,1.5-0.2c0.1-0.5,0.2-1,0.3-1.5c0.1-0.5,0.3-1,0.4-1.5c0.2-0.5,0.3-1,0.5-1.4
	c0.2-0.4,0.4-0.7,0.6-1c0.1-0.1,0.2-0.2,0.3-0.2c0.1,0,0.2-0.1,0.2-0.1c0.1,0,0.2,0.1,0.3,0.2c0.1,0.1,0.1,0.2,0.1,0.4
	c0,0.1,0,0.2,0,0.2c-0.2,0.5-0.4,1.2-0.6,2c-0.2,0.8-0.5,1.7-0.7,2.6c0.9-0.1,1.8-0.3,2.7-0.5c0.9-0.2,1.6-0.3,2.3-0.4
	c0.2-0.1,0.3-0.1,0.4,0c0.1,0.1,0.2,0.2,0.2,0.3c0,0.1,0,0.2-0.1,0.3c-0.1,0.1-0.1,0.1-0.2,0.2l0,0c-0.2,0.1-0.5,0.2-0.9,0.3
	c-0.4,0.1-0.8,0.2-1.3,0.3c-0.5,0.1-1,0.2-1.6,0.3c-0.6,0.1-1.1,0.2-1.7,0.3c-0.2,0.8-0.4,1.7-0.7,2.6c-0.2,0.9-0.4,1.8-0.7,2.6
	c-0.1,0.3-0.2,0.6-0.3,0.7c-0.1,0.1-0.2,0.1-0.4,0.1c-0.2,0-0.3-0.1-0.4-0.2c-0.1-0.1-0.1-0.4,0-0.7l1.1-4.9
	c-0.6,0.1-1.1,0.2-1.5,0.2C483.8,227.4,483.5,227.4,483.3,227.3z M491.8,232.6c-0.2,0-0.4-0.1-0.5-0.2c-0.1-0.1-0.2-0.4-0.2-0.9
	c0-0.4,0.1-1,0.2-1.7c0.2-0.7,0.4-1.5,0.6-2.3c0.3-0.9,0.6-1.7,0.9-2.7c0.3-0.9,0.7-1.8,1-2.7c0.4-0.9,0.7-1.7,1.1-2.5
	c0.1-0.3,0.3-0.5,0.4-0.6c0.1-0.1,0.3-0.2,0.5-0.2c0.1,0,0.2,0,0.3,0.1c0.1,0.1,0.1,0.2,0.1,0.3c0,0.1-0.1,0.2-0.2,0.6
	c-0.1,0.3-0.3,0.7-0.5,1.3c-0.2,0.5-0.4,1.1-0.7,1.7c-0.3,0.6-0.5,1.3-0.8,2c-0.3,0.7-0.5,1.4-0.7,2.2c-0.2,0.7-0.4,1.4-0.6,2.1
	c-0.2,0.7-0.3,1.2-0.3,1.8c0.2-0.3,0.5-0.6,0.8-1.1c0.3-0.4,0.6-0.9,1-1.4c0.3-0.5,0.7-1,1-1.5c0.3-0.5,0.7-0.9,1-1.3
	c0.3-0.4,0.6-0.7,0.9-1c0.3-0.2,0.6-0.4,0.8-0.4c0.4,0,0.7,0.1,0.9,0.3c0.2,0.2,0.3,0.6,0.3,1.1c0,0.3-0.1,0.6-0.2,1
	c-0.1,0.4-0.2,0.8-0.4,1.3c-0.1,0.4-0.3,0.9-0.4,1.3c-0.1,0.4-0.2,0.8-0.2,1c0,0.4,0.1,0.6,0.4,0.6c0.5,0,0.9-0.1,1.4-0.3
	c0.5-0.2,0.9-0.5,1.3-0.8c0.4-0.3,0.8-0.6,1.2-0.9c0.4-0.3,0.7-0.6,0.9-0.8c0.3-0.2,0.5-0.4,0.7-0.4c0.2,0,0.3,0.1,0.3,0.4
	c0,0.1,0,0.1,0,0.2c0,0.1-0.1,0.2-0.2,0.3c-0.2,0.2-0.4,0.4-0.7,0.7c-0.3,0.3-0.6,0.6-1,0.9c-0.4,0.3-0.8,0.6-1.2,0.9
	c-0.4,0.3-0.9,0.5-1.3,0.7c-0.4,0.2-0.9,0.3-1.3,0.3c-0.6,0-1-0.2-1.3-0.5c-0.3-0.3-0.5-0.8-0.5-1.4c0-0.4,0.1-0.8,0.2-1.3
	s0.3-1.1,0.4-1.6c0.2-0.6,0.4-1.2,0.5-1.7c-0.3,0.2-0.6,0.5-1,1c-0.4,0.4-0.7,0.9-1.1,1.4c-0.4,0.5-0.8,1.1-1.2,1.6
	c-0.4,0.5-0.8,1-1.1,1.5c-0.4,0.5-0.7,0.8-1,1.1C492.3,232.5,492,232.6,491.8,232.6z M512.8,225.6c0.2,0.5,0.3,1.1,0.5,1.6
	c0.2,0.6,0.3,1.1,0.4,1.7c0.1,0.5,0.2,1,0.2,1.4c0,0.5-0.1,0.9-0.4,1.2c-0.2,0.3-0.5,0.5-0.9,0.7c-0.4,0.2-0.8,0.3-1.2,0.3
	c-0.4,0.1-0.8,0.1-1.1,0.1c-0.3,0-0.5-0.1-0.6-0.2c-0.1-0.1-0.1-0.2-0.1-0.3c0-0.1,0-0.2,0.1-0.3c0.1-0.1,0.2-0.2,0.5-0.2
	c0.2,0,0.5-0.1,0.7-0.1c0.3-0.1,0.5-0.2,0.8-0.3c0.3-0.1,0.5-0.3,0.7-0.4c0.2-0.2,0.3-0.4,0.3-0.6c0-0.5-0.1-1.1-0.2-1.6
	c-0.1-0.6-0.3-1.1-0.4-1.7c-0.3,0.5-0.7,1-1.2,1.5c-0.4,0.5-0.9,1-1.4,1.5c-0.5,0.5-1,0.9-1.5,1.2c-0.5,0.4-1,0.6-1.5,0.8
	c-0.5,0.2-0.9,0.3-1.3,0.3c-0.7,0-1.2-0.2-1.6-0.7c-0.4-0.5-0.6-1.2-0.6-2.1c0-0.5,0.1-1.1,0.2-1.6c0.1-0.6,0.3-1.1,0.4-1.5
	c0.2-0.5,0.4-0.9,0.6-1.2c0.2-0.3,0.4-0.4,0.5-0.4c0.1,0,0.2,0,0.3,0.1c0.1,0.1,0.1,0.2,0.1,0.4c0,0.1,0,0.3-0.1,0.6
	c-0.1,0.3-0.2,0.7-0.3,1.1c-0.1,0.4-0.2,0.9-0.3,1.3c-0.1,0.5-0.1,0.9-0.1,1.3c0,0.5,0.1,0.9,0.3,1.1c0.2,0.2,0.4,0.4,0.7,0.4
	c0.4,0,0.8-0.1,1.3-0.4s1-0.6,1.5-1c0.5-0.4,1-0.8,1.5-1.3c0.5-0.5,0.9-1,1.3-1.5c0.4-0.5,0.7-1,0.9-1.5c0-0.2-0.1-0.4-0.1-0.6
	c0-0.2,0-0.4,0-0.6c0-0.3,0.1-0.6,0.2-0.8c0.1-0.2,0.2-0.4,0.4-0.5c0.1-0.1,0.3-0.2,0.4-0.2c0.2,0,0.4,0.1,0.5,0.3
	c0.1,0.2,0.2,0.5,0.2,0.9c0,0.2,0,0.5-0.1,0.8C513.1,225,512.9,225.3,512.8,225.6z M505.2,222.9c-0.3,0-0.5-0.1-0.6-0.2
	c-0.1-0.2-0.2-0.4-0.2-0.6c0-0.3,0.1-0.5,0.3-0.7c0.2-0.2,0.4-0.3,0.7-0.3c0.3,0,0.5,0.1,0.7,0.2c0.2,0.2,0.3,0.4,0.3,0.7
	c0,0.2-0.1,0.4-0.3,0.6C505.7,222.8,505.5,222.9,505.2,222.9z M529.1,225.7c0,0.3-0.1,0.6-0.3,0.9c-0.2,0.3-0.4,0.6-0.8,0.8
	c-0.3,0.3-0.7,0.5-1.1,0.7c-0.4,0.2-0.8,0.4-1.2,0.6c-0.4,0.2-0.7,0.3-1.1,0.4c-0.1,0.4-0.1,0.7-0.1,1c0,0.2,0,0.3,0.1,0.4
	c0.1,0.1,0.2,0.1,0.4,0.1c0.4,0,0.8-0.1,1.3-0.2c0.5-0.1,0.9-0.3,1.4-0.6c0.5-0.2,0.9-0.5,1.4-0.7c0.4-0.3,0.8-0.5,1.2-0.7
	c0.4-0.2,0.7-0.4,0.9-0.6c0.2-0.1,0.4-0.2,0.5-0.2c0.1,0,0.2,0,0.3,0.1c0.1,0.1,0.1,0.2,0.1,0.2c0,0.1-0.1,0.2-0.4,0.4
	c-0.2,0.2-0.5,0.5-0.9,0.8c-0.4,0.3-0.8,0.6-1.3,0.9c-0.5,0.3-1,0.6-1.5,0.9c-0.5,0.3-1,0.5-1.5,0.6c-0.5,0.2-0.9,0.2-1.3,0.2
	c-0.5,0-0.9-0.2-1.2-0.6c-0.3-0.4-0.4-1-0.4-1.7c0-0.5,0.1-1.1,0.2-1.6c0.1-0.5,0.3-1.1,0.6-1.5c0.2-0.5,0.5-0.9,0.8-1.3
	c0.3-0.4,0.6-0.7,1-0.9c0.3-0.2,0.7-0.3,1-0.3c0.6,0,1.1,0.2,1.4,0.5C529,224.8,529.1,225.2,529.1,225.7z M525.1,228.1
	c0.3-0.2,0.6-0.4,0.9-0.6c0.3-0.2,0.6-0.4,0.9-0.6c0.3-0.2,0.5-0.4,0.7-0.7c0.2-0.2,0.3-0.5,0.3-0.7c0-0.4-0.2-0.5-0.6-0.5
	c-0.2,0-0.5,0.2-0.8,0.5c-0.3,0.3-0.5,0.7-0.8,1.2C525.5,227.1,525.3,227.6,525.1,228.1z M531.9,231.5c-0.1,0-0.2-0.1-0.3-0.2
	c-0.1-0.1-0.1-0.2-0.1-0.4c0-0.1,0.1-0.3,0.3-0.6c0.2-0.3,0.4-0.6,0.7-0.9c0.3-0.4,0.6-0.7,1-1.1c0.4-0.4,0.7-0.8,1.1-1.2
	c-0.4-0.8-0.8-1.3-1-1.8c-0.2-0.4-0.3-0.8-0.3-1c0-0.2,0.1-0.3,0.2-0.5c0.1-0.2,0.2-0.2,0.3-0.2c0.1,0,0.3,0.1,0.4,0.2
	c0.1,0.2,0.3,0.4,0.5,0.8c0.2,0.4,0.5,0.9,0.8,1.5c0.5-0.6,1-1.2,1.3-1.6c0.4-0.4,0.6-0.7,0.9-0.9c0.2-0.2,0.4-0.4,0.5-0.5
	c0.1-0.1,0.2-0.1,0.3-0.1c0.1,0,0.2,0,0.3,0.1c0.1,0.1,0.1,0.2,0.1,0.4c0,0.2-0.1,0.4-0.3,0.7c-0.2,0.3-0.4,0.6-0.7,0.9
	c-0.3,0.3-0.6,0.7-0.9,1c-0.3,0.3-0.6,0.7-0.9,1c0.5,0.8,0.9,1.6,1.4,2.2c0.4,0.6,0.8,1.1,1.1,1.5c0.3,0.4,0.4,0.7,0.4,0.9
	c0,0.1,0,0.2-0.1,0.3c-0.1,0.1-0.2,0.1-0.3,0.1c-0.1,0-0.2,0-0.4-0.1c-0.2-0.1-0.4-0.3-0.6-0.6c-0.2-0.3-0.5-0.7-0.9-1.2
	c-0.4-0.5-0.8-1.2-1.4-2.1c-0.3,0.4-0.7,0.8-1,1.2c-0.3,0.4-0.6,0.8-0.9,1.1c-0.3,0.3-0.5,0.6-0.8,0.8
	C532.2,231.3,532,231.5,531.9,231.5z M542.8,232.2c-0.5,0-0.9-0.1-1.2-0.3c-0.3-0.2-0.6-0.5-0.8-0.9c-0.2-0.3-0.3-0.7-0.3-1.1
	c0-0.8,0.1-1.5,0.4-2.1c0.3-0.6,0.6-1.2,1-1.7c0.4-0.5,0.8-0.9,1.3-1.3c0.4-0.3,0.8-0.6,1.2-0.8c0.4-0.2,0.6-0.3,0.8-0.3
	c0.3,0,0.5,0.2,0.5,0.5c0,0.1-0.1,0.3-0.3,0.5c-0.2,0.2-0.4,0.4-0.7,0.7c-0.3,0.2-0.6,0.5-1,0.9c-0.3,0.3-0.7,0.7-1,1.1
	c-0.3,0.4-0.5,0.8-0.7,1.3c-0.2,0.5-0.3,1-0.3,1.6c0,0.6,0.2,0.9,0.7,0.9c0.4,0,0.9-0.1,1.3-0.2c0.5-0.2,0.9-0.4,1.4-0.6
	c0.5-0.3,0.9-0.5,1.3-0.8c0.4-0.3,0.8-0.6,1.1-0.8c0.3-0.3,0.6-0.5,0.9-0.7c0.2-0.2,0.4-0.2,0.5-0.2c0.2,0,0.3,0.1,0.3,0.3
	c0,0.2-0.1,0.4-0.3,0.6c-0.2,0.3-0.5,0.6-0.9,0.9c-0.4,0.3-0.8,0.6-1.3,1c-0.5,0.3-0.9,0.6-1.4,0.9c-0.5,0.3-0.9,0.5-1.4,0.6
	C543.5,232.1,543.2,232.2,542.8,232.2z M550.6,232.3c-0.4,0-0.8-0.1-1.2-0.4c-0.3-0.3-0.6-0.6-0.8-1.1c-0.2-0.5-0.3-1-0.3-1.6
	c0-0.6,0.1-1.3,0.2-1.9c0.1-0.6,0.3-1.2,0.5-1.8c0.2-0.5,0.4-1,0.7-1.3c0.2-0.3,0.4-0.5,0.6-0.5c0.1,0,0.2,0,0.3,0.1
	c0.1,0.1,0.1,0.2,0.1,0.4c0,0,0,0.2-0.1,0.4c-0.1,0.2-0.2,0.5-0.3,0.9c-0.1,0.3-0.2,0.7-0.3,1.2c-0.1,0.4-0.2,0.9-0.3,1.3
	c-0.1,0.4-0.1,0.9-0.1,1.3c0,0.7,0.1,1.2,0.2,1.4c0.1,0.3,0.3,0.4,0.6,0.4c0.7,0,1.4-0.2,2-0.5c0.6-0.4,1.2-0.9,1.7-1.5
	c0.5-0.6,1-1.3,1.5-2c-0.3,0-0.7,0.1-1,0.1c-0.3,0-0.6,0-0.9,0c-0.3,0-0.5,0-0.5-0.1c-0.1-0.1-0.1-0.2-0.1-0.4c0-0.1,0-0.3,0.2-0.4
	c0.1-0.1,0.3-0.2,0.4-0.2c0.4,0,0.9-0.1,1.3-0.1c0.5-0.1,0.9-0.1,1.3-0.2c0.2-0.4,0.5-0.9,0.7-1.3c0.2-0.5,0.4-0.9,0.6-1.3
	c0.2-0.6,0.4-1.2,0.6-1.7c0.2-0.5,0.4-1,0.7-1.3c0.2-0.3,0.4-0.5,0.6-0.5c0.3,0,0.5,0.2,0.5,0.5c0,0.1,0,0.3-0.1,0.6
	c-0.1,0.3-0.2,0.7-0.4,1.2c-0.1,0.5-0.3,1-0.5,1.7c-0.2,0.6-0.4,1.3-0.6,2c0.9-0.2,1.7-0.3,2.4-0.5c0.7-0.2,1.3-0.3,1.8-0.4
	c0.5-0.1,0.7-0.2,0.8-0.2c0.1,0,0.2,0.1,0.3,0.2c0.1,0.1,0.1,0.2,0.1,0.3c0,0.1-0.2,0.2-0.5,0.3c-0.3,0.1-0.7,0.3-1.3,0.5
	c-0.5,0.2-1.2,0.3-1.9,0.5c-0.7,0.2-1.4,0.3-2.1,0.5c-0.2,0.8-0.5,1.6-0.7,2.4c-0.2,0.8-0.4,1.5-0.6,2.2c-0.1,0.4-0.3,0.6-0.6,0.6
	c-0.2,0-0.3,0-0.4-0.1c-0.1-0.1-0.1-0.2-0.1-0.4c0,0,0-0.2,0.1-0.4c0.1-0.3,0.1-0.6,0.2-1c0.1-0.4,0.2-0.8,0.3-1.3
	c0.1-0.4,0.2-0.9,0.3-1.2c-0.5,0.9-1.1,1.7-1.7,2.5c-0.6,0.7-1.3,1.3-2,1.8C552.1,232.1,551.4,232.3,550.6,232.3z M550.8,222.3
	c-0.2,0-0.4-0.1-0.6-0.2c-0.1-0.1-0.2-0.3-0.2-0.5c0-0.3,0.1-0.5,0.3-0.7c0.2-0.2,0.4-0.3,0.7-0.3c0.3,0,0.5,0.1,0.6,0.2
	c0.1,0.2,0.2,0.4,0.2,0.6c0,0.2-0.1,0.4-0.3,0.6C551.3,222.3,551,222.3,550.8,222.3z M562.4,231c-0.2,0-0.3-0.1-0.5-0.2
	c-0.1-0.1-0.2-0.4-0.2-0.7c0-0.2,0-0.5,0.1-0.9c0.1-0.4,0.1-0.8,0.2-1.3c0.1-0.5,0.2-0.9,0.3-1.3c0.1-0.5,0.2-0.9,0.3-1.2
	c0.1-0.4,0.2-0.6,0.3-0.8c0.1-0.1,0.2-0.2,0.2-0.3c0.1,0,0.1-0.1,0.2-0.1c0.1,0,0.3,0,0.3,0.1c0.1,0.1,0.2,0.3,0.2,0.5
	c0,0.1,0,0.4-0.1,0.7c0,0.3-0.1,0.7-0.2,1.2c-0.1,0.4-0.2,0.9-0.3,1.3c-0.1,0.5-0.2,0.9-0.3,1.3c-0.1,0.4-0.2,0.8-0.2,1
	c0,0.2-0.1,0.3-0.2,0.4C562.6,231,562.5,231,562.4,231z M563.8,223.1c-0.2,0-0.4-0.1-0.6-0.2c-0.2-0.1-0.3-0.4-0.3-0.7
	c0-0.2,0.1-0.5,0.2-0.6c0.1-0.2,0.3-0.3,0.4-0.3c0.2-0.1,0.3-0.1,0.4-0.1c0.1,0,0.3,0,0.4,0.1c0.2,0,0.3,0.1,0.4,0.3
	c0.1,0.1,0.2,0.3,0.2,0.6c0,0.2-0.1,0.3-0.2,0.5c-0.1,0.1-0.3,0.2-0.5,0.3C564.2,223,564,223.1,563.8,223.1z M567.1,231.6
	c-0.3,0-0.5-0.2-0.8-0.5c-0.2-0.3-0.3-0.7-0.3-1.2c0-0.5,0.1-1.1,0.2-1.8c0.2-0.6,0.3-1.3,0.6-1.9c0.2-0.7,0.4-1.3,0.7-1.9
	c0-0.1,0.1-0.2,0.2-0.3c0.1-0.1,0.2-0.1,0.4-0.1c0.3,0,0.5,0.2,0.5,0.5c0,0.1,0,0.3-0.1,0.5c-0.1,0.3-0.2,0.6-0.3,1
	c-0.1,0.4-0.2,0.8-0.4,1.3c-0.1,0.5-0.2,0.9-0.3,1.4c-0.1,0.5-0.2,0.9-0.2,1.3c0.2-0.2,0.3-0.4,0.5-0.8c0.2-0.3,0.4-0.7,0.7-1.1
	c0.2-0.4,0.5-0.9,0.7-1.3c0.3-0.4,0.5-0.8,0.8-1.2c0.3-0.4,0.5-0.7,0.8-0.9c0.2-0.2,0.5-0.3,0.7-0.3c0.3,0,0.6,0.1,0.8,0.3
	c0.2,0.2,0.4,0.5,0.5,1c0.1,0.5,0.2,1.1,0.2,2c0,0.5,0,0.9,0.1,1.3c0.1,0.4,0.2,0.7,0.4,1c0.2,0.2,0.5,0.3,0.8,0.3
	c0.5,0,0.9-0.1,1.3-0.3c0.4-0.2,0.7-0.4,1-0.6c0.3-0.2,0.5-0.4,0.7-0.6c0.2-0.2,0.3-0.3,0.4-0.3c0.2,0,0.3,0.1,0.3,0.3
	c0,0.1-0.1,0.2-0.2,0.5c-0.1,0.2-0.3,0.4-0.6,0.7c-0.2,0.3-0.5,0.5-0.8,0.7c-0.3,0.2-0.6,0.4-1,0.6c-0.3,0.2-0.7,0.2-1.1,0.2
	c-0.7,0-1.2-0.1-1.6-0.4c-0.4-0.3-0.7-0.7-0.9-1.3c-0.2-0.6-0.3-1.4-0.3-2.4c0-0.6,0-0.9-0.1-1.2c-0.1-0.3-0.2-0.4-0.3-0.5
	c-0.1,0.2-0.3,0.5-0.4,0.9c-0.2,0.4-0.4,0.8-0.6,1.2c-0.2,0.5-0.5,0.9-0.7,1.4c-0.2,0.5-0.5,0.9-0.8,1.3c-0.3,0.4-0.5,0.7-0.8,0.9
	C567.5,231.5,567.3,231.6,567.1,231.6z M578,235.8c-0.7,0-1.3-0.1-1.6-0.2c-0.3-0.1-0.5-0.3-0.5-0.6c0-0.2,0-0.3,0.1-0.4
	c0.1-0.1,0.2-0.1,0.4-0.1c0.2,0,0.4,0,0.7,0.1c0.3,0.1,0.6,0.1,0.9,0.1c1,0,1.8-0.3,2.4-0.9c0.6-0.6,1.1-1.5,1.5-2.7
	c0.3-1.2,0.6-2.8,0.7-4.7c-0.3,0.6-0.6,1.2-1,1.8c-0.4,0.6-0.7,1.1-1.2,1.6c-0.4,0.5-0.8,0.9-1.3,1.1c-0.4,0.3-0.9,0.4-1.3,0.4
	c-0.4,0-0.7-0.1-0.9-0.3c-0.2-0.2-0.3-0.5-0.3-1c0-0.4,0.1-0.9,0.3-1.3c0.2-0.5,0.5-0.9,0.9-1.4c0.4-0.5,0.8-0.9,1.3-1.3
	c0.5-0.4,0.9-0.8,1.4-1.1c0.5-0.3,0.9-0.6,1.3-0.8c0.4-0.2,0.7-0.3,1-0.3c0.2,0,0.4,0.1,0.6,0.3c0.1,0.2,0.2,0.5,0.2,1
	c0,1.1,0,2.2-0.1,3.3c-0.1,1.1-0.2,2-0.4,3c-0.2,0.9-0.5,1.7-1,2.4c-0.4,0.7-1,1.2-1.7,1.6C579.9,235.6,579.1,235.8,578,235.8z
	 M582.4,224.9c-0.5,0.3-1,0.7-1.5,1c-0.5,0.4-1,0.8-1.4,1.2c-0.4,0.4-0.8,0.9-1.1,1.3c-0.3,0.5-0.4,0.9-0.4,1.4
	c0,0.1,0.1,0.2,0.3,0.2c0.1,0,0.3-0.1,0.6-0.3c0.3-0.2,0.5-0.5,0.9-0.9c0.3-0.4,0.6-0.8,1-1.3c0.3-0.5,0.7-0.9,0.9-1.4
	C581.9,225.8,582.2,225.4,582.4,224.9z M591.6,235.9c-0.5,0-0.9-0.2-1.2-0.5c-0.3-0.3-0.5-0.7-0.5-1.1c0-0.3,0.2-0.6,0.5-0.9
	c0.3-0.2,0.8-0.5,1.4-0.7c0.6-0.2,1.2-0.5,1.9-0.7c0.2-0.6,0.3-1.3,0.5-2.1c0.2-0.8,0.3-1.8,0.5-2.9c0.1-0.6,0.1-1,0.2-1.3
	c0.1-0.3,0.1-0.5,0.2-0.7c0.1-0.1,0.1-0.2,0.2-0.2c0.1,0,0.2,0,0.2,0c0.1,0,0.2,0,0.3,0.1c0.1,0.1,0.3,0.2,0.4,0.4
	c0.1,0.2,0.2,0.3,0.2,0.5c0,0.1,0,0.3-0.1,0.5c0,0.2-0.1,0.5-0.2,0.8c-0.1,0.3-0.2,0.6-0.4,0.8c-0.1,0.7-0.3,1.3-0.4,1.9
	c-0.1,0.6-0.2,1.1-0.3,1.6c0.6-0.3,1.1-0.5,1.7-0.9c0.6-0.3,1.1-0.7,1.5-1c0.5-0.4,0.9-0.8,1.2-1.3c0.1-0.1,0.2-0.2,0.3-0.2
	c0,0,0.1,0,0.1,0.1c0.1,0.1,0.1,0.2,0.1,0.3c0,0.4-0.1,0.7-0.4,1.1c-0.3,0.4-0.7,0.7-1.2,1.1c-0.5,0.4-1.1,0.7-1.7,1.1
	c-0.6,0.3-1.3,0.7-1.9,1c-0.2,0.8-0.5,1.5-0.8,1.9c-0.3,0.5-0.6,0.8-1,0.9C592.5,235.8,592.1,235.9,591.6,235.9z M595.7,223.2
	c-0.2,0-0.3-0.1-0.5-0.2c-0.1-0.1-0.2-0.3-0.2-0.6c0-0.3,0.1-0.6,0.3-0.8c0.2-0.3,0.5-0.4,0.8-0.4c0.3,0,0.5,0.1,0.7,0.2
	c0.2,0.2,0.3,0.4,0.3,0.6c0,0.2-0.1,0.4-0.2,0.6c-0.1,0.1-0.3,0.2-0.5,0.2c0,0-0.1,0-0.1,0c-0.1,0.1-0.2,0.2-0.3,0.3
	C595.9,223.2,595.8,223.2,595.7,223.2z M593.4,233.3c-0.4,0.2-0.9,0.3-1.3,0.5c-0.4,0.1-0.8,0.3-1.1,0.4c0.1,0.2,0.2,0.4,0.3,0.5
	c0.1,0.1,0.3,0.1,0.5,0.1c0.3,0,0.6-0.1,0.8-0.3C592.9,234.3,593.1,233.9,593.4,233.3z M600.8,232.1c-0.6,0-1-0.2-1.3-0.7
	c-0.3-0.4-0.5-1-0.5-1.7c0-0.2,0-0.5,0.1-0.8c0.1-0.3,0.2-0.5,0.3-0.8c-0.1-0.1-0.1-0.2-0.2-0.3c0-0.1-0.1-0.3-0.1-0.5
	c0-0.6,0.1-1.1,0.3-1.6c0.2-0.5,0.4-0.9,0.8-1.2c0.3-0.4,0.7-0.6,1.1-0.8c0.4-0.2,0.8-0.3,1.2-0.3c0.7,0,1.2,0.2,1.6,0.7
	c0.4,0.5,0.6,1.2,0.6,2.2c0,0.5-0.1,1-0.2,1.6c-0.1,0.5-0.3,1-0.6,1.5c-0.3,0.5-0.5,0.9-0.9,1.3c-0.3,0.4-0.7,0.7-1.1,0.9
	C601.5,232,601.2,232.1,600.8,232.1z M600.3,227.7c0.1,0.1,0.1,0.2,0.1,0.3c0,0.1,0,0.3-0.1,0.4c0,0.1-0.1,0.3-0.2,0.6
	c-0.1,0.2-0.1,0.6-0.1,1.1c0,0.5,0.2,0.7,0.5,0.7c0.4,0,0.8-0.2,1.1-0.5c0.3-0.3,0.7-0.7,0.9-1.3s0.5-1.1,0.6-1.6
	c0.2-0.6,0.2-1.1,0.2-1.7c0-0.3-0.1-0.6-0.2-0.7c-0.1-0.1-0.4-0.2-0.7-0.2c-0.3,0-0.7,0.1-1.1,0.3c-0.4,0.2-0.7,0.5-0.9,0.9
	c-0.2,0.4-0.4,0.8-0.4,1.3C600.3,227.5,600.3,227.6,600.3,227.7z M610.9,232.3c-0.2,0-0.3-0.1-0.4-0.2c-0.1-0.1-0.2-0.4-0.2-0.6
	c0-0.3,0-0.8,0.1-1.4c0.1-0.6,0.3-1.4,0.5-2.4c-0.3,0.6-0.6,1.2-0.9,1.7c-0.3,0.6-0.6,1-1,1.3c-0.3,0.3-0.7,0.5-1.1,0.5
	c-0.4,0-0.7-0.1-1-0.4c-0.3-0.3-0.4-0.8-0.4-1.5c0-0.4,0-0.8,0.1-1.3c0.1-0.5,0.2-1,0.3-1.5c0.1-0.5,0.2-0.9,0.3-1.3
	c0.1-0.4,0.2-0.7,0.3-0.9c0.1-0.2,0.1-0.3,0.2-0.3c0.1-0.1,0.2-0.1,0.3-0.1c0.1,0,0.3,0.1,0.4,0.2c0.2,0.1,0.2,0.3,0.2,0.6
	c0,0.1,0,0.2-0.1,0.5c-0.1,0.2-0.1,0.5-0.2,0.9c-0.1,0.3-0.2,0.7-0.3,1.1c-0.1,0.4-0.2,0.8-0.2,1.2c-0.1,0.4-0.1,0.8-0.1,1.1
	c0,0.2,0,0.3,0.1,0.4c0,0.1,0.1,0.2,0.3,0.2c0.1,0,0.3-0.1,0.5-0.4c0.2-0.3,0.4-0.6,0.7-1.1c0.3-0.5,0.5-1,0.8-1.5
	c0.3-0.5,0.5-1.1,0.8-1.7c0.3-0.6,0.5-1.1,0.7-1.6c0.1-0.2,0.2-0.3,0.2-0.3c0.1,0,0.2-0.1,0.3-0.1c0.2,0,0.3,0.1,0.5,0.2
	c0.1,0.1,0.2,0.3,0.2,0.5c0,0.1,0,0.4-0.1,0.8c0,0.4-0.1,0.8-0.2,1.3c-0.1,0.5-0.2,1-0.3,1.5c-0.1,0.5-0.2,1.1-0.3,1.6
	c-0.1,0.5-0.2,1-0.3,1.4c-0.1,0.4-0.2,0.8-0.2,1c0,0.2-0.1,0.4-0.2,0.5C611,232.3,611,232.3,610.9,232.3z M615.2,232.2
	c-0.2,0-0.3-0.1-0.4-0.2c-0.1-0.1-0.2-0.3-0.2-0.5c0-0.2,0-0.4,0.1-0.8c0.1-0.4,0.2-0.8,0.2-1.3c0.1-0.5,0.2-1,0.2-1.6
	c0.1-0.6,0.1-1.1,0.1-1.6c0-0.2,0.1-0.4,0.2-0.5c0.1-0.1,0.3-0.2,0.4-0.2c0.2,0,0.3,0.1,0.3,0.3c0.1,0.2,0.1,0.6,0,1.2
	c0.4-1,0.9-1.8,1.5-2.4c0.5-0.6,1.1-1,1.6-1.3c0.5-0.3,1-0.4,1.4-0.4c0.3,0,0.5,0.1,0.6,0.2c0.1,0.1,0.2,0.2,0.2,0.4
	c0,0.2-0.1,0.3-0.2,0.4c-0.1,0.1-0.4,0.2-0.8,0.3c-0.4,0.2-0.8,0.4-1.2,0.6c-0.3,0.2-0.7,0.5-1,0.8c-0.3,0.3-0.6,0.8-0.9,1.3
	c-0.3,0.5-0.6,1.2-0.9,2c-0.3,0.8-0.6,1.7-1,2.8c-0.1,0.2-0.1,0.4-0.2,0.4C615.4,232.2,615.3,232.2,615.2,232.2z M622.5,231.6
	c-0.3,0-0.5-0.2-0.8-0.5c-0.2-0.3-0.3-0.7-0.3-1.2c0-0.5,0.1-1.1,0.2-1.8c0.2-0.6,0.3-1.3,0.6-1.9c0.2-0.7,0.4-1.3,0.7-1.9
	c0-0.1,0.1-0.2,0.2-0.3c0.1-0.1,0.2-0.1,0.4-0.1c0.3,0,0.5,0.2,0.5,0.5c0,0.1,0,0.3-0.1,0.5c-0.1,0.3-0.2,0.6-0.3,1
	c-0.1,0.4-0.2,0.8-0.4,1.3c-0.1,0.5-0.2,0.9-0.3,1.4c-0.1,0.5-0.2,0.9-0.2,1.3c0.2-0.2,0.3-0.4,0.5-0.8c0.2-0.3,0.4-0.7,0.6-1.1
	c0.2-0.4,0.5-0.9,0.7-1.3c0.2-0.4,0.5-0.8,0.8-1.2c0.3-0.4,0.5-0.7,0.8-0.9c0.3-0.2,0.5-0.3,0.7-0.3c0.3,0,0.6,0.1,0.8,0.3
	c0.2,0.2,0.4,0.5,0.5,1c0.1,0.5,0.2,1.1,0.2,2c0,0.5,0,0.9,0.1,1.3c0.1,0.4,0.2,0.7,0.4,1c0.2,0.2,0.5,0.3,0.8,0.3
	c0.5,0,0.9-0.1,1.3-0.3c0.4-0.2,0.7-0.4,1-0.6c0.3-0.2,0.5-0.4,0.7-0.6c0.2-0.2,0.3-0.3,0.4-0.3c0.2,0,0.3,0.1,0.3,0.3
	c0,0.1-0.1,0.2-0.2,0.5c-0.1,0.2-0.3,0.4-0.6,0.7c-0.2,0.3-0.5,0.5-0.8,0.7c-0.3,0.2-0.6,0.4-1,0.6c-0.3,0.2-0.7,0.2-1.1,0.2
	c-0.7,0-1.2-0.1-1.6-0.4c-0.4-0.3-0.7-0.7-0.9-1.3c-0.2-0.6-0.3-1.4-0.3-2.4c0-0.6,0-0.9-0.1-1.2c-0.1-0.3-0.2-0.4-0.3-0.5
	c-0.1,0.2-0.3,0.5-0.4,0.9c-0.2,0.4-0.4,0.8-0.6,1.2c-0.2,0.5-0.5,0.9-0.7,1.4c-0.3,0.5-0.5,0.9-0.8,1.3c-0.3,0.4-0.5,0.7-0.8,0.9
	C622.9,231.5,622.7,231.6,622.5,231.6z M638.5,225.7c0,0.3-0.1,0.6-0.3,0.9c-0.2,0.3-0.4,0.6-0.8,0.8c-0.3,0.3-0.7,0.5-1.1,0.7
	c-0.4,0.2-0.8,0.4-1.2,0.6c-0.4,0.2-0.7,0.3-1.1,0.4c-0.1,0.4-0.1,0.7-0.1,1c0,0.2,0,0.3,0.1,0.4c0.1,0.1,0.2,0.1,0.4,0.1
	c0.4,0,0.8-0.1,1.3-0.2c0.5-0.1,0.9-0.3,1.4-0.6c0.5-0.2,0.9-0.5,1.4-0.7c0.4-0.3,0.8-0.5,1.2-0.7c0.4-0.2,0.7-0.4,0.9-0.6
	c0.2-0.1,0.4-0.2,0.5-0.2c0.1,0,0.2,0,0.3,0.1c0.1,0.1,0.1,0.2,0.1,0.2c0,0.1-0.1,0.2-0.4,0.4c-0.2,0.2-0.5,0.5-0.9,0.8
	c-0.4,0.3-0.8,0.6-1.3,0.9c-0.5,0.3-1,0.6-1.5,0.9c-0.5,0.3-1,0.5-1.5,0.6c-0.5,0.2-0.9,0.2-1.3,0.2c-0.5,0-0.9-0.2-1.2-0.6
	c-0.3-0.4-0.4-1-0.4-1.7c0-0.5,0.1-1.1,0.2-1.6c0.1-0.5,0.3-1.1,0.6-1.5c0.2-0.5,0.5-0.9,0.8-1.3c0.3-0.4,0.6-0.7,1-0.9
	c0.3-0.2,0.7-0.3,1-0.3c0.6,0,1.1,0.2,1.4,0.5C638.3,224.8,638.5,225.2,638.5,225.7z M634.4,228.1c0.3-0.2,0.6-0.4,0.9-0.6
	c0.3-0.2,0.6-0.4,0.9-0.6c0.3-0.2,0.5-0.4,0.6-0.7c0.2-0.2,0.3-0.5,0.3-0.7c0-0.4-0.2-0.5-0.6-0.5c-0.2,0-0.5,0.2-0.8,0.5
	c-0.3,0.3-0.5,0.7-0.8,1.2C634.8,227.1,634.6,227.6,634.4,228.1z M642.6,235.7c-0.5,0-0.9,0-1.3-0.1c-0.4-0.1-0.8-0.2-1.2-0.3
	c-0.4-0.1-0.8-0.3-1.3-0.5c-0.1-0.1-0.3-0.1-0.4-0.2c-0.1-0.1-0.2-0.2-0.2-0.3c0-0.1,0.1-0.3,0.3-0.5c0.2-0.2,0.3-0.2,0.5-0.2
	c0.2,0,0.4,0.1,0.6,0.2c0.3,0.1,0.5,0.2,0.9,0.4c0.3,0.2,0.7,0.3,1.1,0.4c0.4,0.1,0.8,0.2,1.3,0.2c0.5,0,1-0.2,1.4-0.6
	c0.4-0.4,0.8-1,1.1-1.8c0.3-0.8,0.4-1.7,0.4-2.8c0-0.3,0-0.7,0-1.1c0-0.4,0-0.8-0.1-1.3c-0.2,0.5-0.5,1-0.8,1.5
	c-0.3,0.5-0.6,0.9-0.9,1.3c-0.3,0.4-0.6,0.7-0.9,1c-0.3,0.2-0.6,0.3-1,0.3c-0.4,0-0.7-0.1-0.9-0.3c-0.2-0.2-0.3-0.5-0.3-1
	c0-0.5,0-1,0.1-1.5c0.1-0.5,0.2-1.1,0.3-1.6c0.1-0.6,0.3-1.1,0.4-1.6c0.2-0.5,0.3-0.9,0.5-1.3c0.1-0.2,0.2-0.3,0.4-0.3
	c0.1,0,0.3,0.1,0.4,0.2c0.1,0.1,0.2,0.3,0.2,0.5c0,0.2,0,0.4-0.1,0.7c-0.1,0.3-0.2,0.7-0.3,1.1c-0.1,0.4-0.2,0.8-0.3,1.3
	c-0.1,0.4-0.2,0.9-0.3,1.3c-0.1,0.4-0.1,0.8-0.1,1.1c0,0.1,0.1,0.2,0.3,0.2c0.1,0,0.3-0.1,0.4-0.3c0.2-0.2,0.4-0.5,0.7-0.8
	c0.3-0.3,0.5-0.7,0.8-1.1c0.3-0.4,0.5-0.8,0.8-1.2c0.2-0.4,0.4-0.8,0.6-1.1c0-0.1,0-0.1,0-0.2c0-0.1,0-0.1,0-0.2
	c0-0.5,0-0.8,0.1-0.9c0.1-0.1,0.2-0.2,0.4-0.2c0.3,0,0.5,0.1,0.6,0.2c0.1,0.1,0.2,0.3,0.2,0.6c0,0.1,0,0.2,0,0.4
	c0,0.1-0.1,0.3-0.1,0.5c0.1,0.8,0.1,1.4,0.2,2.1c0.1,0.6,0.1,1.2,0.1,1.8c0,1.2-0.2,2.2-0.6,3c-0.4,0.9-0.9,1.5-1.6,2
	C644.3,235.5,643.5,235.7,642.6,235.7z"/>
<path class="st4" d="M391.1,204.7h263.4c13.5,0,24.5,11,24.5,24.5l0,0c0,13.5-11,24.5-24.5,24.5H391.1c-13.5,0-24.5-11-24.5-24.5
	l0,0C366.6,215.6,377.6,204.7,391.1,204.7z"/>
<path class="st0" d="M534.3,271.2h120.5c13.5,0,24.5,11,24.5,24.5l0,0c0,13.5-11,24.5-24.5,24.5H534.3c-13.5,0-24.5-11-24.5-24.5
	l0,0C509.8,282.2,520.8,271.2,534.3,271.2z"/>
<path d="M546.2,299.1c-0.7,0-1.3-0.2-1.7-0.7c-0.4-0.5-0.6-1.2-0.6-2.1c0-0.5,0.1-1.2,0.2-1.9c0.2-0.7,0.3-1.5,0.6-2.3
	c0.2-0.8,0.5-1.6,0.8-2.4c0.3-0.8,0.5-1.5,0.8-2.2c0.3-0.7,0.5-1.3,0.7-1.7c0.1-0.3,0.3-0.4,0.5-0.4c0.3,0,0.4,0.2,0.4,0.5
	c0,0.1-0.1,0.4-0.2,0.7c-0.1,0.4-0.2,0.8-0.4,1.3c-0.2,0.5-0.4,1.1-0.6,1.7c-0.2,0.6-0.4,1.3-0.6,2c-0.2,0.7-0.4,1.3-0.6,2
	c-0.2,0.6-0.3,1.3-0.4,1.8c-0.1,0.6-0.2,1.1-0.2,1.5c0,0.3,0.1,0.5,0.2,0.6c0.1,0.1,0.3,0.2,0.6,0.2c0.4,0,0.9-0.1,1.3-0.3
	c0.5-0.2,0.9-0.4,1.3-0.7c0.4-0.3,0.8-0.5,1.1-0.8c0.3-0.3,0.6-0.5,0.9-0.7c0.2-0.2,0.4-0.3,0.5-0.3c0.2,0,0.3,0.1,0.3,0.3
	c0,0.1-0.1,0.2-0.2,0.4c-0.2,0.2-0.4,0.4-0.6,0.7c-0.3,0.3-0.6,0.6-0.9,0.9c-0.3,0.3-0.7,0.6-1.1,0.8c-0.4,0.3-0.7,0.5-1.1,0.6
	C546.8,299,546.5,299.1,546.2,299.1z M552.2,298.7c-0.6,0-1-0.2-1.3-0.6c-0.3-0.4-0.5-1-0.5-1.7c0-0.3,0-0.5,0.1-0.8
	c0.1-0.3,0.2-0.5,0.3-0.8c-0.1-0.1-0.1-0.2-0.2-0.3c0-0.1-0.1-0.3-0.1-0.5c0-0.6,0.1-1.1,0.3-1.6c0.2-0.5,0.4-0.9,0.8-1.2
	c0.3-0.4,0.7-0.6,1.1-0.8c0.4-0.2,0.8-0.3,1.2-0.3c0.7,0,1.2,0.2,1.6,0.7c0.4,0.5,0.6,1.2,0.6,2.2c0,0.5-0.1,1-0.2,1.6
	c-0.1,0.5-0.3,1-0.6,1.5c-0.3,0.5-0.5,0.9-0.9,1.3c-0.3,0.4-0.7,0.7-1.1,0.9C553,298.6,552.6,298.7,552.2,298.7z M551.8,294.3
	c0.1,0.1,0.1,0.2,0.1,0.3c0,0.1,0,0.3-0.1,0.4c0,0.1-0.1,0.3-0.2,0.6c-0.1,0.3-0.1,0.6-0.1,1.1c0,0.5,0.2,0.7,0.5,0.7
	c0.4,0,0.8-0.2,1.1-0.5c0.3-0.3,0.7-0.7,0.9-1.3c0.3-0.5,0.5-1.1,0.6-1.6c0.2-0.6,0.2-1.1,0.2-1.7c0-0.3-0.1-0.6-0.2-0.7
	c-0.1-0.1-0.4-0.2-0.7-0.2c-0.3,0-0.7,0.1-1.1,0.3c-0.4,0.2-0.7,0.5-0.9,0.9c-0.2,0.4-0.4,0.8-0.4,1.3
	C551.8,294.1,551.8,294.2,551.8,294.3z M558.6,302.3c-0.7,0-1.3-0.1-1.6-0.2c-0.3-0.1-0.5-0.3-0.5-0.6c0-0.2,0-0.3,0.1-0.4
	c0.1-0.1,0.2-0.1,0.4-0.1c0.2,0,0.4,0,0.7,0.1c0.3,0.1,0.6,0.1,0.9,0.1c1,0,1.8-0.3,2.4-0.9c0.6-0.6,1.1-1.5,1.5-2.7
	c0.3-1.2,0.6-2.8,0.7-4.7c-0.3,0.6-0.6,1.2-1,1.8c-0.4,0.6-0.7,1.1-1.2,1.6c-0.4,0.5-0.8,0.9-1.3,1.1c-0.4,0.3-0.9,0.4-1.3,0.4
	c-0.4,0-0.7-0.1-0.9-0.3c-0.2-0.2-0.3-0.5-0.3-1c0-0.4,0.1-0.9,0.3-1.3c0.2-0.5,0.5-0.9,0.9-1.4c0.4-0.5,0.8-0.9,1.3-1.3
	c0.5-0.4,0.9-0.8,1.4-1.1c0.5-0.3,0.9-0.6,1.3-0.8c0.4-0.2,0.7-0.3,1-0.3c0.2,0,0.4,0.1,0.6,0.3c0.1,0.2,0.2,0.5,0.2,1
	c0,1.1,0,2.2-0.1,3.3c-0.1,1.1-0.2,2-0.4,3c-0.2,0.9-0.5,1.7-1,2.4c-0.4,0.7-1,1.2-1.7,1.6C560.5,302.1,559.7,302.3,558.6,302.3z
	 M563,291.5c-0.5,0.3-1,0.7-1.5,1c-0.5,0.4-1,0.8-1.4,1.2c-0.4,0.4-0.8,0.9-1.1,1.3c-0.3,0.5-0.4,0.9-0.4,1.4c0,0.1,0.1,0.2,0.3,0.2
	c0.1,0,0.3-0.1,0.6-0.3c0.3-0.2,0.5-0.5,0.9-0.9c0.3-0.4,0.6-0.8,1-1.3c0.3-0.5,0.7-0.9,0.9-1.4C562.5,292.3,562.8,291.9,563,291.5z
	 M568.9,298.7c-0.6,0-1-0.2-1.3-0.6c-0.3-0.4-0.5-1-0.5-1.7c0-0.3,0-0.5,0.1-0.8c0.1-0.3,0.2-0.5,0.3-0.8c-0.1-0.1-0.1-0.2-0.2-0.3
	c0-0.1-0.1-0.3-0.1-0.5c0-0.6,0.1-1.1,0.3-1.6c0.2-0.5,0.4-0.9,0.8-1.2c0.3-0.4,0.7-0.6,1.1-0.8c0.4-0.2,0.8-0.3,1.2-0.3
	c0.7,0,1.2,0.2,1.6,0.7c0.4,0.5,0.6,1.2,0.6,2.2c0,0.5-0.1,1-0.2,1.6c-0.1,0.5-0.3,1-0.6,1.5c-0.2,0.5-0.5,0.9-0.9,1.3
	c-0.3,0.4-0.7,0.7-1.1,0.9C569.7,298.6,569.3,298.7,568.9,298.7z M568.4,294.3c0.1,0.1,0.1,0.2,0.1,0.3c0,0.1,0,0.3-0.1,0.4
	c0,0.1-0.1,0.3-0.2,0.6c-0.1,0.3-0.1,0.6-0.1,1.1c0,0.5,0.2,0.7,0.5,0.7c0.4,0,0.8-0.2,1.1-0.5c0.3-0.3,0.7-0.7,0.9-1.3
	c0.3-0.5,0.5-1.1,0.6-1.6c0.2-0.6,0.2-1.1,0.2-1.7c0-0.3-0.1-0.6-0.2-0.7c-0.1-0.1-0.4-0.2-0.7-0.2c-0.3,0-0.7,0.1-1.1,0.3
	c-0.4,0.2-0.7,0.5-0.9,0.9c-0.2,0.4-0.4,0.8-0.4,1.3C568.5,294.1,568.4,294.2,568.4,294.3z M584.1,298.8c-0.2,0-0.4-0.1-0.5-0.2
	c-0.1-0.1-0.2-0.3-0.2-0.4c0-0.1,0.1-0.3,0.2-0.4c0.1-0.1,0.3-0.2,0.5-0.3c0.4-0.2,0.7-0.4,1.1-0.6c0.3-0.2,0.6-0.4,0.8-0.7
	c0.2-0.2,0.3-0.5,0.3-0.7c0-0.2-0.1-0.4-0.2-0.5c-0.1-0.1-0.3-0.2-0.6-0.2c-0.1,0-0.3,0-0.6,0.1c-0.3,0-0.5,0.1-0.9,0.2
	c-0.3,0.1-0.6,0.1-0.9,0.2c-0.3,0-0.5,0.1-0.7,0.1c-0.4,0-0.6-0.1-0.8-0.3c-0.2-0.2-0.3-0.4-0.3-0.7c0-0.2,0.1-0.4,0.3-0.7
	c0.2-0.3,0.4-0.6,0.7-1c0.3-0.4,0.6-0.8,1-1.2c0.4-0.4,0.7-0.7,1.1-1.1c0.4-0.3,0.7-0.6,1.1-0.8c0.3-0.2,0.6-0.3,0.8-0.3
	c0.2,0,0.4,0.1,0.5,0.2c0.1,0.1,0.2,0.3,0.2,0.5c0,0.2,0,0.3-0.1,0.4c-0.1,0.1-0.2,0.2-0.4,0.3c-0.2,0.1-0.4,0.1-0.8,0.1
	c-0.4,0.3-0.8,0.6-1.2,1c-0.4,0.4-0.8,0.8-1.1,1.2c-0.3,0.4-0.6,0.8-0.7,1.1c0.3-0.1,0.7-0.2,1.2-0.3c0.5-0.1,0.9-0.1,1.4-0.1
	c0.7,0,1.3,0.2,1.6,0.5c0.4,0.3,0.5,0.8,0.5,1.3c0,0.3-0.1,0.7-0.3,1.1c-0.2,0.4-0.5,0.7-0.8,1c-0.3,0.3-0.7,0.6-1.1,0.8
	C584.8,298.7,584.5,298.8,584.1,298.8z M591.1,298.7c-0.6,0-1-0.2-1.3-0.6c-0.3-0.4-0.5-1-0.5-1.7c0-0.3,0-0.5,0.1-0.8
	c0.1-0.3,0.2-0.5,0.3-0.8c-0.1-0.1-0.1-0.2-0.2-0.3c0-0.1-0.1-0.3-0.1-0.5c0-0.6,0.1-1.1,0.3-1.6c0.2-0.5,0.4-0.9,0.8-1.2
	c0.3-0.4,0.7-0.6,1.1-0.8c0.4-0.2,0.8-0.3,1.2-0.3c0.7,0,1.2,0.2,1.6,0.7c0.4,0.5,0.6,1.2,0.6,2.2c0,0.5-0.1,1-0.2,1.6
	c-0.1,0.5-0.3,1-0.6,1.5c-0.2,0.5-0.5,0.9-0.9,1.3c-0.3,0.4-0.7,0.7-1.1,0.9C591.8,298.6,591.5,298.7,591.1,298.7z M590.6,294.3
	c0.1,0.1,0.1,0.2,0.1,0.3c0,0.1,0,0.3-0.1,0.4c0,0.1-0.1,0.3-0.2,0.6c-0.1,0.3-0.1,0.6-0.1,1.1c0,0.5,0.2,0.7,0.5,0.7
	c0.4,0,0.8-0.2,1.1-0.5c0.3-0.3,0.7-0.7,0.9-1.3c0.3-0.5,0.5-1.1,0.6-1.6c0.2-0.6,0.2-1.1,0.2-1.7c0-0.3-0.1-0.6-0.2-0.7
	c-0.1-0.1-0.4-0.2-0.7-0.2c-0.3,0-0.7,0.1-1.1,0.3c-0.4,0.2-0.7,0.5-0.9,0.9c-0.2,0.4-0.4,0.8-0.4,1.3
	C590.6,294.1,590.6,294.2,590.6,294.3z M599.4,299.1c-0.7,0-1.3-0.2-1.7-0.7c-0.4-0.5-0.6-1.2-0.6-2.1c0-0.5,0.1-1.2,0.2-1.9
	c0.2-0.7,0.3-1.5,0.6-2.3c0.2-0.8,0.5-1.6,0.8-2.4c0.3-0.8,0.5-1.5,0.8-2.2c0.3-0.7,0.5-1.3,0.7-1.7c0.1-0.3,0.3-0.4,0.5-0.4
	c0.3,0,0.4,0.2,0.4,0.5c0,0.1-0.1,0.4-0.2,0.7c-0.1,0.4-0.2,0.8-0.4,1.3c-0.2,0.5-0.4,1.1-0.6,1.7c-0.2,0.6-0.4,1.3-0.6,2
	c-0.2,0.7-0.4,1.3-0.6,2c-0.2,0.6-0.3,1.3-0.4,1.8s-0.2,1.1-0.2,1.5c0,0.3,0.1,0.5,0.2,0.6c0.1,0.1,0.3,0.2,0.6,0.2
	c0.4,0,0.9-0.1,1.3-0.3c0.5-0.2,0.9-0.4,1.3-0.7c0.4-0.3,0.8-0.5,1.1-0.8c0.3-0.3,0.6-0.5,0.9-0.7c0.2-0.2,0.4-0.3,0.5-0.3
	c0.2,0,0.3,0.1,0.3,0.3c0,0.1-0.1,0.2-0.2,0.4c-0.2,0.2-0.4,0.4-0.6,0.7c-0.3,0.3-0.6,0.6-0.9,0.9c-0.3,0.3-0.7,0.6-1.1,0.8
	c-0.4,0.3-0.7,0.5-1.1,0.6C600.1,299,599.7,299.1,599.4,299.1z M608.1,298.9c-0.2,0-0.3-0.1-0.4-0.2c-0.1-0.1-0.2-0.4-0.2-0.6
	c0-0.3,0-0.8,0.1-1.4c0.1-0.6,0.3-1.4,0.5-2.4c-0.3,0.6-0.5,1.2-0.9,1.7c-0.3,0.5-0.6,1-1,1.3c-0.3,0.3-0.7,0.5-1.1,0.5
	c-0.4,0-0.7-0.1-1-0.4c-0.3-0.3-0.4-0.8-0.4-1.5c0-0.4,0-0.8,0.1-1.3c0.1-0.5,0.2-1,0.3-1.5c0.1-0.5,0.2-0.9,0.3-1.3
	c0.1-0.4,0.2-0.7,0.3-0.9c0.1-0.2,0.1-0.3,0.2-0.3c0.1-0.1,0.2-0.1,0.3-0.1c0.1,0,0.3,0.1,0.4,0.2c0.2,0.1,0.2,0.3,0.2,0.6
	c0,0.1,0,0.2-0.1,0.5c-0.1,0.2-0.1,0.5-0.2,0.9c-0.1,0.3-0.2,0.7-0.3,1.1c-0.1,0.4-0.2,0.8-0.2,1.2c-0.1,0.4-0.1,0.8-0.1,1.1
	c0,0.2,0,0.3,0.1,0.4s0.1,0.2,0.3,0.2c0.1,0,0.3-0.1,0.5-0.4c0.2-0.3,0.4-0.6,0.7-1.1c0.3-0.5,0.5-1,0.8-1.5
	c0.3-0.6,0.5-1.1,0.8-1.7c0.3-0.6,0.5-1.1,0.7-1.6c0.1-0.2,0.2-0.3,0.2-0.3c0.1,0,0.2-0.1,0.3-0.1c0.2,0,0.3,0.1,0.5,0.2
	c0.1,0.1,0.2,0.3,0.2,0.5c0,0.1,0,0.4-0.1,0.8c0,0.4-0.1,0.8-0.2,1.3c-0.1,0.5-0.2,1-0.3,1.5c-0.1,0.5-0.2,1.1-0.3,1.6
	c-0.1,0.5-0.2,1-0.3,1.4c-0.1,0.4-0.2,0.8-0.2,1c0,0.2-0.1,0.4-0.2,0.5C608.3,298.8,608.2,298.9,608.1,298.9z M610.9,293.9
	c-0.3,0-0.4-0.2-0.4-0.5c0-0.1,0.1-0.2,0.2-0.3c0.1-0.1,0.2-0.2,0.3-0.2c0.3,0,0.7-0.1,1.1-0.1c0.4-0.1,0.9-0.1,1.5-0.2
	c0.1-0.5,0.2-1,0.3-1.5c0.1-0.5,0.3-1,0.4-1.5c0.2-0.5,0.3-1,0.5-1.4c0.2-0.4,0.4-0.7,0.6-1c0.1-0.1,0.2-0.2,0.3-0.2
	c0.1,0,0.2-0.1,0.2-0.1c0.1,0,0.2,0.1,0.3,0.2c0.1,0.1,0.1,0.2,0.1,0.4c0,0.1,0,0.2,0,0.2c-0.2,0.5-0.4,1.2-0.6,2
	c-0.2,0.8-0.5,1.7-0.7,2.6c0.9-0.1,1.8-0.3,2.7-0.5c0.9-0.2,1.6-0.3,2.3-0.4c0.2-0.1,0.3-0.1,0.4,0c0.1,0.1,0.2,0.2,0.2,0.3
	c0,0.1,0,0.2-0.1,0.3c-0.1,0.1-0.1,0.1-0.2,0.2l0,0c-0.2,0.1-0.5,0.2-0.9,0.3c-0.4,0.1-0.8,0.2-1.3,0.3c-0.5,0.1-1,0.2-1.6,0.3
	c-0.6,0.1-1.1,0.2-1.7,0.3c-0.2,0.8-0.4,1.7-0.7,2.6c-0.2,0.9-0.4,1.8-0.7,2.6c-0.1,0.3-0.2,0.6-0.3,0.6c-0.1,0.1-0.2,0.1-0.4,0.1
	c-0.2,0-0.3-0.1-0.4-0.2c-0.1-0.1-0.1-0.4,0-0.7l1.1-4.9c-0.6,0.1-1.1,0.1-1.5,0.2C611.4,293.9,611.1,293.9,610.9,293.9z
	 M619.2,298.6c-0.2,0-0.3-0.1-0.5-0.2c-0.1-0.1-0.2-0.4-0.2-0.7c0-0.2,0-0.5,0.1-0.9c0.1-0.4,0.1-0.8,0.2-1.3
	c0.1-0.5,0.2-0.9,0.3-1.3c0.1-0.5,0.2-0.9,0.3-1.2c0.1-0.4,0.2-0.6,0.3-0.8c0.1-0.1,0.1-0.2,0.2-0.3c0.1,0,0.2-0.1,0.2-0.1
	c0.1,0,0.3,0,0.3,0.1c0.1,0.1,0.2,0.3,0.2,0.5c0,0.1,0,0.4-0.1,0.7c0,0.3-0.1,0.7-0.2,1.2c-0.1,0.4-0.2,0.9-0.3,1.3
	c-0.1,0.5-0.2,0.9-0.3,1.3c-0.1,0.4-0.2,0.8-0.2,1c0,0.2-0.1,0.3-0.2,0.4C619.4,298.6,619.3,298.6,619.2,298.6z M620.6,290.6
	c-0.2,0-0.4-0.1-0.6-0.2c-0.2-0.1-0.3-0.4-0.3-0.7c0-0.3,0.1-0.5,0.2-0.6c0.1-0.2,0.3-0.3,0.4-0.3c0.2-0.1,0.3-0.1,0.4-0.1
	c0.1,0,0.3,0,0.4,0.1c0.2,0,0.3,0.1,0.4,0.3c0.1,0.1,0.2,0.3,0.2,0.6c0,0.2-0.1,0.3-0.2,0.5c-0.1,0.1-0.3,0.2-0.5,0.3
	C621,290.6,620.8,290.6,620.6,290.6z M631.4,299c-0.3,0-0.5-0.1-0.6-0.3c-0.1-0.2-0.2-0.5-0.2-0.9c0-0.4,0-0.8,0.1-1.3
	c0.1-0.5,0.2-1.1,0.3-1.7c0.1-0.6,0.3-1.3,0.4-2c-0.6,0.8-1.2,1.4-2,1.9c-0.7,0.5-1.5,0.8-2.3,0.9c-0.2,0.5-0.4,0.9-0.7,1.3
	c-0.3,0.4-0.5,0.7-0.9,0.9c-0.3,0.2-0.6,0.3-1,0.3c-0.4,0-0.8-0.2-1.1-0.5c-0.3-0.3-0.4-0.8-0.4-1.5c0-0.4,0.1-0.8,0.2-1.2
	c0.1-0.4,0.2-0.6,0.4-0.8c-0.1-0.4-0.2-0.8-0.2-1.2c0-0.6,0.1-1.1,0.4-1.5c0.3-0.4,0.6-0.8,1-1c0.4-0.3,0.9-0.4,1.4-0.4
	c0.4,0,0.8,0.2,1.1,0.6c0.3,0.4,0.5,0.9,0.5,1.6c0,0.7-0.1,1.4-0.3,2.2c0.5-0.2,1.1-0.5,1.6-0.9c0.5-0.4,1.1-0.9,1.6-1.5
	c0.5-0.6,1-1.2,1.4-1.9c0.1-0.2,0.3-0.3,0.4-0.3c0.2,0,0.3,0.1,0.4,0.2c0.1,0.1,0.2,0.2,0.2,0.4c0,0,0,0.2-0.1,0.5
	c0,0.3-0.1,0.6-0.2,1.1c-0.1,0.4-0.2,0.9-0.3,1.4c-0.1,0.5-0.2,1-0.3,1.6c-0.1,0.5-0.2,1-0.2,1.5c0.2-0.4,0.5-0.9,0.8-1.4
	c0.3-0.5,0.6-1,0.9-1.5c0.3-0.5,0.6-0.9,0.9-1.3c0.3-0.4,0.5-0.7,0.7-1c0.2-0.2,0.4-0.4,0.5-0.4c0.2,0,0.4,0.1,0.6,0.2
	c0.2,0.2,0.3,0.3,0.3,0.5c0,0.2,0,0.6-0.1,1c0,0.4-0.1,0.9-0.2,1.5c-0.1,0.6-0.1,1.1-0.2,1.7c-0.1,0.6-0.1,1.1-0.2,1.5
	c0,0.5-0.1,0.8-0.1,1c0,0.1-0.1,0.3-0.2,0.4c-0.1,0.1-0.3,0.2-0.4,0.2c-0.1,0-0.2,0-0.3-0.1c-0.1-0.1-0.1-0.2-0.2-0.4
	c0-0.2-0.1-0.5-0.1-1c0-0.4,0-0.9,0-1.4c0-0.5,0.1-1,0.1-1.5c0.1-0.5,0.1-1,0.2-1.4c-0.2,0.4-0.5,0.8-0.8,1.3
	c-0.3,0.5-0.6,1-0.9,1.6c-0.3,0.5-0.6,1-0.9,1.5c-0.3,0.5-0.5,0.9-0.8,1.1C631.7,298.9,631.5,299,631.4,299z M626.4,294.7
	c0.1-0.4,0.2-0.8,0.3-1.2c0.1-0.4,0.1-0.8,0.1-1.3c0-0.2,0-0.5-0.1-0.6c-0.1-0.2-0.2-0.2-0.4-0.2c-0.2,0-0.5,0.1-0.7,0.2
	c-0.2,0.1-0.4,0.3-0.6,0.6c-0.2,0.3-0.2,0.5-0.2,0.9c0,0.4,0.2,0.8,0.5,1.1C625.5,294.5,625.9,294.7,626.4,294.7z M626,295.7
	c-0.7,0-1.2-0.2-1.6-0.6c0,0.1,0,0.2-0.1,0.4c0,0.1,0,0.2,0,0.3c0,0.3,0,0.5,0.1,0.7c0.1,0.2,0.3,0.2,0.5,0.2c0.2,0,0.4-0.1,0.5-0.3
	C625.6,296.3,625.8,296,626,295.7z M641.4,298.8c-0.2,0-0.4-0.1-0.5-0.2c-0.1-0.1-0.2-0.3-0.2-0.4c0-0.1,0.1-0.3,0.2-0.4
	c0.1-0.1,0.3-0.2,0.5-0.3c0.4-0.2,0.7-0.4,1.1-0.6c0.3-0.2,0.6-0.4,0.8-0.7c0.2-0.2,0.3-0.5,0.3-0.7c0-0.2-0.1-0.4-0.2-0.5
	c-0.1-0.1-0.3-0.2-0.6-0.2c-0.1,0-0.3,0-0.6,0.1c-0.3,0-0.5,0.1-0.9,0.2c-0.3,0.1-0.6,0.1-0.9,0.2c-0.3,0-0.5,0.1-0.7,0.1
	c-0.4,0-0.6-0.1-0.8-0.3c-0.2-0.2-0.3-0.4-0.3-0.7c0-0.2,0.1-0.4,0.3-0.7c0.2-0.3,0.4-0.6,0.7-1c0.3-0.4,0.6-0.8,1-1.2
	c0.4-0.4,0.7-0.7,1.1-1.1c0.4-0.3,0.7-0.6,1.1-0.8c0.3-0.2,0.6-0.3,0.8-0.3c0.2,0,0.4,0.1,0.5,0.2c0.1,0.1,0.2,0.3,0.2,0.5
	c0,0.2,0,0.3-0.1,0.4c-0.1,0.1-0.2,0.2-0.4,0.3c-0.2,0.1-0.4,0.1-0.8,0.1c-0.4,0.3-0.8,0.6-1.2,1c-0.4,0.4-0.8,0.8-1.1,1.2
	c-0.3,0.4-0.6,0.8-0.7,1.1c0.3-0.1,0.7-0.2,1.2-0.3c0.5-0.1,0.9-0.1,1.4-0.1c0.7,0,1.3,0.2,1.6,0.5c0.4,0.3,0.5,0.8,0.5,1.3
	c0,0.3-0.1,0.7-0.3,1.1c-0.2,0.4-0.5,0.7-0.8,1c-0.3,0.3-0.7,0.6-1.1,0.8C642.1,298.7,641.7,298.8,641.4,298.8z"/>
<path class="st4" d="M534.3,271.2h120.5c13.5,0,24.5,11,24.5,24.5l0,0c0,13.5-11,24.5-24.5,24.5H534.3c-13.5,0-24.5-11-24.5-24.5
	l0,0C509.8,282.2,520.8,271.2,534.3,271.2z"/>
<path class="st0" d="M85.4,66.5h234.8c11.8,0,21.3,9.6,21.3,21.3V226c0,11.8-9.6,21.3-21.3,21.3H85.4c-11.8,0-21.3-9.6-21.3-21.3
	V87.9C64,76.1,73.6,66.5,85.4,66.5z"/>
<rect x="197.1" y="100.5" class="st5" width="135.6" height="135.6"/>
<path d="M256.5,121.6c0,5.6-2.2,11-6.2,15c-4,4-9.4,6.2-15,6.2c-5.6,0-11-2.2-15-6.2c-4-4-6.2-9.4-6.2-15c0-5.6,2.2-11,6.2-15
	c4-4,9.4-6.2,15-6.2c5.6,0,11,2.2,15,6.2C254.2,110.6,256.5,116,256.5,121.6z M292.3,156c-0.8-0.4-1.7-0.5-2.6-0.4
	c-0.9,0.1-1.7,0.6-2.3,1.2l-31.4,39.9l-22.5-23.5c-0.8-0.5-1.8-0.8-2.8-0.7c-1,0.1-1.9,0.5-2.6,1.2l-30.9,36.9v17
	c0,2.2,0.9,4.4,2.5,6c1.6,1.6,3.7,2.5,6,2.5h118.7c1.1,0,2.2-0.2,3.2-0.6c1-0.4,2-1.1,2.8-1.8c0.8-0.8,1.4-1.7,1.8-2.8
	c0.4-1,0.6-2.1,0.6-3.2v-38.1L292.3,156z"/>
<rect x="84.1" y="100.5" class="st5" width="135.6" height="135.6"/>
<path d="M179.3,156c-0.8-0.4-1.7-0.5-2.6-0.4c-0.9,0.1-1.7,0.6-2.3,1.2l-31.4,39.9l-22.5-23.5c-0.8-0.5-1.8-0.8-2.8-0.7
	c-1,0.1-1.9,0.5-2.6,1.2l-30.9,36.9v17c0,2.2,0.9,4.4,2.5,6c1.6,1.6,3.7,2.5,6,2.5h118.7c1.1,0,2.2-0.2,3.2-0.6c1-0.4,2-1.1,2.7-1.8
	s1.4-1.7,1.8-2.8c0.4-1,0.6-2.1,0.6-3.2v-38.1L179.3,156z"/>
<path class="st4" d="M85.4,66.5h234.8c11.8,0,21.3,9.6,21.3,21.3V226c0,11.8-9.6,21.3-21.3,21.3H85.4c-11.8,0-21.3-9.6-21.3-21.3
	V87.9C64,76.1,73.6,66.5,85.4,66.5z"/>
<rect x="137.6" y="271.1" class="st6" width="194.2" height="96.7"/>
<rect x="133.1" y="267.5" class="st7" width="9.9" height="9.9"/>
<rect x="133.1" y="361.6" class="st7" width="9.9" height="9.9"/>
<rect x="327.3" y="267.5" class="st7" width="9.9" height="9.9"/>
<rect x="327.3" y="361.6" class="st7" width="9.9" height="9.9"/>
<path d="M202.8,342c-0.6,0-1-0.2-1.4-0.6c-0.4-0.4-0.5-1.1-0.5-2.1c0-0.7,0.2-1.9,0.7-3.6c0.5-1.7,1.2-3.7,2-5.9
	c0.8-2.3,1.8-4.7,2.8-7.2c1.1-2.5,2.2-5.1,3.3-7.6c1.1-2.5,2.2-4.8,3.3-6.9c1.1-2.2,2.1-4,3-5.5c0.9-1.5,1.7-2.5,2.3-2.9
	c0.7-0.5,1.4-0.8,2.1-0.8c0.4,0,0.7,0,1.1,0.1c0.4,0.1,0.7,0.2,0.9,0.4c0.6,0.4,1.2,1.3,1.6,2.6c0.5,1.3,0.9,2.9,1.3,4.8
	c0.4,1.9,0.6,3.9,0.8,6c0.2,2.1,0.5,4.2,0.6,6.3c1.1-0.1,1.9-0.2,2.7-0.3c0.7-0.1,1.2-0.1,1.5-0.1c1.2,0,2,0.2,2.3,0.5
	c0.3,0.3,0.5,0.7,0.5,1.1c0.1,0.6-0.1,1.2-0.5,1.7c-0.4,0.5-1,0.9-1.8,1.1c-0.2,0.1-0.8,0.2-1.6,0.4c-0.8,0.1-1.7,0.3-2.8,0.5
	c0,1.1,0.1,2.1,0.1,3c0,0.9,0.1,1.6,0.1,2.3c0,3.2-0.2,5.6-0.6,7.3c-0.4,1.6-0.9,2.7-1.4,3.2c-0.6,0.6-1.1,0.8-1.6,0.8
	c-0.6,0-1.1-0.2-1.3-0.5c-0.2-0.4-0.4-0.9-0.4-1.6v-3.8c0-1.3,0-2.8-0.1-4.5c0-1.7,0-3.5-0.1-5.4c-2.1,0.4-4.2,0.7-6.4,1
	c-2.1,0.3-4,0.6-5.5,0.8c-0.8,2-1.5,3.8-2,5.5c-0.6,1.6-1,2.8-1.2,3.7c-0.5,1.8-1,3.1-1.4,4c-0.4,0.8-0.8,1.4-1.2,1.7
	C203.6,341.9,203.2,342,202.8,342z M211.6,322.1c1.8-0.4,3.6-0.8,5.3-1.2c1.7-0.4,3.3-0.7,4.7-0.9c-0.1-3.2-0.3-6.2-0.6-9.1
	c-0.2-2.9-0.6-5.3-1.1-7c-0.7,1.2-1.5,2.7-2.4,4.7c-0.9,1.9-1.9,4.1-2.9,6.5C213.5,317.4,212.6,319.7,211.6,322.1z M244.2,342.3
	c-1.3,0-2.5-0.6-3.3-1.9c-0.8-1.3-1.3-2.9-1.3-4.9c0-1.9,0.5-3.7,1.4-5.6c1-1.8,2.2-3.6,3.8-5.3c1.6-1.7,3.3-3.3,5.1-4.7
	c1.8-1.5,3.7-2.7,5.5-3.8c1.9-1.1,3.6-1.9,5.1-2.5c1.6-0.6,2.8-0.9,3.7-0.9c0.5,0,0.9,0.1,1.2,0.3c0.3,0.2,0.5,0.5,0.5,1
	c0,0.3-0.1,0.6-0.4,0.9c0,0,0.1,0,0.1,0c0.8,0,1.2,0.5,1.2,1.4c0,0.3-0.1,1-0.4,2c-0.2,1-0.5,2.2-0.8,3.6c-0.3,1.4-0.6,3.1-0.8,4.8
	c-0.2,1.7-0.4,3.5-0.4,5.3c0,1.5,0.6,2.3,1.8,2.3c1.3,0,2.6-0.3,4-0.9c1.3-0.6,2.7-1.3,3.9-2.2c1.3-0.9,2.4-1.8,3.5-2.6
	c1.1-0.9,2-1.6,2.7-2.2c0.7-0.6,1.3-0.9,1.6-0.9c0.3,0,0.5,0.1,0.7,0.3c0.2,0.2,0.3,0.5,0.3,0.8c0,0.4-0.4,1-1.1,1.9
	c-0.7,0.9-1.6,2-2.8,3.1c-1.2,1.2-2.5,2.3-3.9,3.4c-1.5,1.1-2.9,2-4.5,2.7c-1.5,0.7-3,1.1-4.4,1.1c-1.1,0-2-0.3-2.9-1
	c-0.8-0.7-1.5-1.8-2.1-3.4c-0.5-1.6-0.7-3.8-0.7-6.6v-1.3c-1.7,2.9-3.6,5.5-5.5,7.9c-1.9,2.4-3.7,4.3-5.6,5.7
	C247.6,341.6,245.8,342.3,244.2,342.3z M263.2,316.6c-0.2,0.1-0.4,0.2-0.7,0.3c-1.6,0.7-3.3,1.7-5.1,2.8c-1.7,1.1-3.4,2.3-5.1,3.7
	c-1.6,1.3-3.1,2.7-4.4,4.2c-1.3,1.5-2.4,2.9-3.1,4.4c-0.8,1.5-1.2,2.9-1.2,4.4c0,0.5,0.1,0.8,0.3,1.1c0.2,0.2,0.6,0.4,1.1,0.4
	c0.7,0,1.6-0.4,2.8-1.3c1.1-0.9,2.4-2.1,3.7-3.6c1.4-1.5,2.8-3.1,4.1-4.9c1.4-1.8,2.7-3.6,3.9-5.5c1.3-1.8,2.4-3.5,3.3-5.1
	C262.8,317,263,316.8,263.2,316.6z"/>
<path d="M358.1,346.8c0.6-0.6,0.6-1.5,0-2.1l-3.4-3.4c-0.5-0.6-1.5-0.6-2.1,0l-2.7,2.7l5.5,5.5 M332.1,361.8v5.5h5.5l16.2-16.2
	l-5.5-5.5L332.1,361.8z"/>
<path class="st4" d="M12.6,1.3h696.9c6.2,0,11.3,5.1,11.3,11.3v401.8c0,6.2-5.1,11.3-11.3,11.3H12.6c-6.2,0-11.3-5.1-11.3-11.3V12.6
	C1.3,6.3,6.3,1.3,12.6,1.3z"/>
<path d="M519,160.5h175c3.6,0,6.5,2.9,6.5,6.5v361c0,3.6-2.9,6.5-6.5,6.5H519c-3.6,0-6.5-2.9-6.5-6.5V167
	C512.5,163.4,515.4,160.5,519,160.5z"/>
<path class="st8" d="M519,160.5h175c3.6,0,6.5,2.9,6.5,6.5v361c0,3.6-2.9,6.5-6.5,6.5H519c-3.6,0-6.5-2.9-6.5-6.5V167
	C512.5,163.4,515.4,160.5,519,160.5z"/>
<path class="st0" d="M516,158h175c3.3,0,6,2.7,6,6v361c0,3.3-2.7,6-6,6H516c-3.3,0-6-2.7-6-6V164C510,160.7,512.7,158,516,158z"/>
<path class="st1" d="M509,157h187v24H509V157z"/>
<defs>
	
		<filter id="Adobe_OpacityMaskFilter_00000030480151844558543980000004789270624700259728_" filterUnits="userSpaceOnUse" x="509" y="179" width="187" height="4">
		<feColorMatrix  type="matrix" values="1 0 0 0 0  0 1 0 0 0  0 0 1 0 0  0 0 0 1 0"/>
	</filter>
</defs>
<mask maskUnits="userSpaceOnUse" x="509" y="179" width="187" height="4" id="path-28-inside-2_274_295_00000165924987456018139230000010901200708578653111_">
	<path style="fill:#FFFFFF;filter:url(#Adobe_OpacityMaskFilter_00000030480151844558543980000004789270624700259728_);" d="
		M509,157h187v24H509V157z"/>
</mask>
<path class="st10" d="M696,179H509v4h187V179z"/>
<path class="st1" d="M509,508h187v24H509V508z"/>
<defs>
	
		<filter id="Adobe_OpacityMaskFilter_00000154387393812093493140000013295595595289134503_" filterUnits="userSpaceOnUse" x="509" y="506" width="187" height="4">
		<feColorMatrix  type="matrix" values="1 0 0 0 0  0 1 0 0 0  0 0 1 0 0  0 0 0 1 0"/>
	</filter>
</defs>
<mask maskUnits="userSpaceOnUse" x="509" y="506" width="187" height="4" id="path-30-inside-3_274_295_00000060008200337438576830000006593218479845186737_">
	<path style="fill:#FFFFFF;filter:url(#Adobe_OpacityMaskFilter_00000154387393812093493140000013295595595289134503_);" d="
		M509,508h187v24H509V508z"/>
</mask>
<path class="st12" d="M509,510h187v-4H509V510z"/>
<path d="M540.4,193.3h127c8.2,0,14.8,6.6,14.8,14.8v0c0,8.2-6.6,14.8-14.8,14.8h-127c-8.2,0-14.8-6.6-14.8-14.8v0
	C525.5,199.9,532.2,193.3,540.4,193.3z"/>
<path class="st13" d="M540.4,193.3h127c8.2,0,14.8,6.6,14.8,14.8v0c0,8.2-6.6,14.8-14.8,14.8h-127c-8.2,0-14.8-6.6-14.8-14.8v0
	C525.5,199.9,532.2,193.3,540.4,193.3z"/>
<path class="st0" d="M539.6,191.8h127c8.2,0,14.8,6.6,14.8,14.8v0c0,8.2-6.6,14.8-14.8,14.8h-127c-8.2,0-14.8-6.6-14.8-14.8v0
	C524.8,198.4,531.4,191.8,539.6,191.8z"/>
<path d="M544.6,209.7l3.3,3.3l-1.1,1.1l-3.3-3.3c-1.2,1-2.7,1.5-4.3,1.5c-3.8,0-6.8-3.1-6.8-6.8c0-3.8,3.1-6.8,6.8-6.8
	c3.8,0,6.8,3.1,6.8,6.8C546.1,207,545.5,208.5,544.6,209.7z M543,209.2c1-1,1.5-2.3,1.5-3.7c0-2.9-2.4-5.3-5.3-5.3
	c-2.9,0-5.3,2.4-5.3,5.3c0,2.9,2.4,5.3,5.3,5.3c1.4,0,2.7-0.5,3.7-1.5L543,209.2z"/>
<path class="st13" d="M539.6,191.8h127c8.2,0,14.8,6.6,14.8,14.8v0c0,8.2-6.6,14.8-14.8,14.8h-127c-8.2,0-14.8-6.6-14.8-14.8v0
	C524.8,198.4,531.4,191.8,539.6,191.8z"/>
<path class="st0" d="M535.1,238.7h136.6c6.9,0,12.4,5.6,12.4,12.4v80.3c0,6.9-5.6,12.4-12.4,12.4H535.1c-6.9,0-12.4-5.6-12.4-12.4
	v-80.3C522.7,244.3,528.3,238.7,535.1,238.7z"/>
<rect x="600.1" y="258.4" class="st5" width="78.9" height="78.9"/>
<path d="M634.6,270.8c0,3.3-1.3,6.4-3.6,8.7c-2.3,2.3-5.4,3.6-8.7,3.6c-3.3,0-6.4-1.3-8.7-3.6c-2.3-2.3-3.6-5.4-3.6-8.7
	c0-3.3,1.3-6.4,3.6-8.7c2.3-2.3,5.4-3.6,8.7-3.6c3.3,0,6.4,1.3,8.7,3.6S634.6,267.5,634.6,270.8z M655.5,290.7
	c-0.5-0.2-1-0.3-1.5-0.2c-0.5,0.1-1,0.3-1.3,0.7l-18.3,23.2l-13.1-13.7c-0.5-0.3-1-0.5-1.6-0.4c-0.6,0.1-1.1,0.3-1.5,0.7l-18,21.5
	v9.9c0,1.3,0.5,2.6,1.4,3.5c0.9,0.9,2.2,1.4,3.5,1.4h69c0.6,0,1.3-0.1,1.9-0.4c0.6-0.2,1.1-0.6,1.6-1.1c0.5-0.5,0.8-1,1.1-1.6
	c0.2-0.6,0.4-1.2,0.4-1.9v-22.2L655.5,290.7z"/>
<rect x="534.4" y="258.4" class="st5" width="78.9" height="78.9"/>
<path d="M589.7,290.7c-0.5-0.2-1-0.3-1.5-0.2c-0.5,0.1-1,0.3-1.3,0.7l-18.3,23.2l-13.1-13.7c-0.5-0.3-1-0.5-1.6-0.4
	c-0.6,0.1-1.1,0.3-1.5,0.7l-18,21.5v9.9c0,1.3,0.5,2.6,1.4,3.5c0.9,0.9,2.2,1.4,3.5,1.4h69c0.6,0,1.3-0.1,1.9-0.4
	c0.6-0.2,1.1-0.6,1.6-1.1c0.5-0.5,0.8-1,1.1-1.6c0.2-0.6,0.4-1.2,0.4-1.9v-22.2L589.7,290.7z"/>
<path class="st14" d="M535.1,238.7h136.6c6.9,0,12.4,5.6,12.4,12.4v80.3c0,6.9-5.6,12.4-12.4,12.4H535.1c-6.9,0-12.4-5.6-12.4-12.4
	v-80.3C522.7,244.3,528.3,238.7,535.1,238.7z"/>
<rect x="535.3" y="361.6" class="st15" width="140.2" height="69.8"/>
<rect x="532" y="359" class="st7" width="7.2" height="7.2"/>
<rect x="532" y="427" class="st7" width="7.2" height="7.2"/>
<rect x="672.2" y="359" class="st7" width="7.2" height="7.2"/>
<rect x="672.2" y="427" class="st7" width="7.2" height="7.2"/>
<path d="M582.3,412.2c-0.4,0-0.7-0.1-1-0.4s-0.4-0.8-0.4-1.5c0-0.5,0.2-1.4,0.5-2.6c0.4-1.2,0.8-2.7,1.4-4.3c0.6-1.6,1.3-3.4,2-5.2
	c0.8-1.8,1.6-3.7,2.4-5.5c0.8-1.8,1.6-3.5,2.4-5c0.8-1.6,1.5-2.9,2.2-3.9c0.7-1.1,1.2-1.8,1.7-2.1c0.5-0.4,1-0.6,1.5-0.6
	c0.3,0,0.5,0,0.8,0.1c0.3,0.1,0.5,0.1,0.7,0.3c0.5,0.3,0.9,0.9,1.2,1.9c0.4,0.9,0.7,2.1,0.9,3.5c0.3,1.4,0.5,2.8,0.6,4.4
	c0.2,1.5,0.3,3,0.5,4.6c0.8-0.1,1.4-0.2,1.9-0.2c0.5-0.1,0.9-0.1,1.1-0.1c0.9,0,1.4,0.1,1.6,0.3c0.2,0.2,0.4,0.5,0.4,0.8
	c0.1,0.5-0.1,0.9-0.4,1.2c-0.3,0.4-0.7,0.6-1.3,0.8c-0.2,0.1-0.6,0.1-1.1,0.3c-0.6,0.1-1.2,0.2-2,0.4c0,0.8,0,1.5,0,2.1
	c0,0.6,0,1.2,0,1.6c0,2.3-0.1,4.1-0.4,5.2c-0.3,1.1-0.6,1.9-1,2.3c-0.4,0.4-0.8,0.6-1.2,0.6c-0.5,0-0.8-0.1-1-0.4
	c-0.2-0.3-0.3-0.7-0.3-1.2V407c0-0.9,0-2,0-3.2c0-1.2,0-2.5,0-3.9c-1.5,0.3-3,0.5-4.6,0.7c-1.5,0.2-2.9,0.4-4,0.6
	c-0.6,1.5-1,2.8-1.5,3.9c-0.4,1.1-0.7,2-0.8,2.6c-0.4,1.3-0.7,2.2-1,2.9c-0.3,0.6-0.6,1-0.9,1.2
	C582.9,412.1,582.6,412.2,582.3,412.2z M588.7,397.8c1.3-0.3,2.6-0.6,3.8-0.8c1.2-0.3,2.3-0.5,3.4-0.7c-0.1-2.3-0.2-4.5-0.4-6.6
	c-0.2-2.1-0.4-3.8-0.8-5c-0.5,0.8-1.1,2-1.7,3.4c-0.7,1.4-1.4,3-2.1,4.7C590.1,394.5,589.4,396.2,588.7,397.8z M612.2,412.4
	c-1,0-1.8-0.4-2.4-1.3c-0.6-0.9-0.9-2.1-0.9-3.6c0-1.4,0.3-2.7,1-4c0.7-1.3,1.6-2.6,2.7-3.8c1.1-1.2,2.3-2.3,3.7-3.4
	c1.3-1,2.7-2,4-2.7c1.4-0.8,2.6-1.4,3.7-1.8c1.1-0.4,2-0.7,2.7-0.7c0.4,0,0.7,0.1,0.9,0.2c0.2,0.1,0.3,0.4,0.3,0.7
	c0,0.2-0.1,0.4-0.3,0.7c0,0,0.1,0,0.1,0c0.6,0,0.8,0.3,0.8,1c0,0.2-0.1,0.7-0.3,1.4c-0.2,0.7-0.4,1.6-0.6,2.6
	c-0.2,1-0.4,2.2-0.6,3.5c-0.2,1.3-0.3,2.5-0.3,3.8c0,1.1,0.4,1.6,1.3,1.6c0.9,0,1.9-0.2,2.9-0.7c1-0.4,1.9-1,2.8-1.6
	c0.9-0.6,1.8-1.3,2.5-1.9c0.8-0.6,1.4-1.2,2-1.6c0.5-0.4,0.9-0.7,1.1-0.7c0.2,0,0.4,0.1,0.5,0.2s0.2,0.3,0.2,0.6
	c0,0.3-0.3,0.7-0.8,1.4c-0.5,0.7-1.2,1.4-2,2.3c-0.8,0.8-1.8,1.7-2.8,2.4c-1,0.8-2.1,1.4-3.2,2c-1.1,0.5-2.1,0.8-3.1,0.8
	c-0.8,0-1.5-0.2-2.1-0.7c-0.6-0.5-1.1-1.3-1.5-2.5c-0.4-1.1-0.5-2.7-0.5-4.7v-1c-1.2,2.1-2.6,4-3.9,5.7c-1.4,1.7-2.7,3.1-4.1,4.1
	C614.6,411.9,613.4,412.4,612.2,412.4z M625.9,393.9c-0.1,0.1-0.3,0.1-0.5,0.2c-1.2,0.5-2.4,1.2-3.7,2c-1.3,0.8-2.5,1.7-3.7,2.6
	c-1.2,1-2.2,2-3.2,3c-0.9,1-1.7,2.1-2.3,3.2c-0.6,1.1-0.8,2.1-0.8,3.1c0,0.3,0.1,0.6,0.2,0.8c0.2,0.2,0.4,0.3,0.8,0.3
	c0.5,0,1.2-0.3,2-1c0.8-0.7,1.7-1.5,2.7-2.6c1-1.1,2-2.3,3-3.6c1-1.3,1.9-2.6,2.8-3.9c0.9-1.3,1.7-2.6,2.4-3.7
	C625.6,394.2,625.7,394,625.9,393.9z"/>
<path d="M647.5,380.2c0.1-0.6-0.2-1.2-0.8-1.3l-3.4-0.8c-0.5-0.1-1.1,0.2-1.3,0.8l-0.6,2.7l5.5,1.3 M637.3,399.2l2.1,3.4l3.4-2.1
	l3.7-16.1l-5.5-1.3L637.3,399.2z"/>
<path class="st16" d="M516,158h175c3.3,0,6,2.7,6,6v361c0,3.3-2.7,6-6,6H516c-3.3,0-6-2.7-6-6V164C510,160.7,512.7,158,516,158z"/>
<line class="st17" x1="98.6" y1="577.1" x2="258.6" y2="507.1"/>
<circle class="st18" cx="179" cy="541" r="26"/>
</svg>
