<svg width="53" height="53" viewBox="0 0 53 53" fill="none" xmlns="http://www.w3.org/2000/svg">
<g clip-path="url(#clip0_86_313)">
<rect width="52.3026" height="53" rx="26.1513" fill="white"/>
<g filter="url(#filter0_d_86_313)">
<circle cx="25.8027" cy="26.5" r="20.2237" fill="white"/>
<path fill-rule="evenodd" clip-rule="evenodd" d="M18.4804 37.6579C19.8751 39.0526 23.5014 41.0052 26.8488 37.6579C28.7084 35.682 33.6133 32.9158 38.3554 37.6579C40.0988 39.4013 41.7725 40.0289 42.8883 39.75C47.4212 35.2171 47.0725 25.1052 47.0725 25.1052L44.6317 23.7105C43.3929 23.0137 42.3949 22.2963 41.5306 21.675C38.5024 19.4984 37.1166 18.5023 32.7764 23.7105C29.9869 27.546 23.1527 33.8921 18.1317 28.5921C16.8532 27.3136 13.3198 25.5237 9.41457 28.5921L6.6251 31.0329L5.57898 31.718C5.63967 31.9607 5.66867 32.3192 5.70321 32.7461C5.80097 33.9545 5.94313 35.7115 6.97372 36.9482C8.71714 34.9724 13.1804 32.9158 18.4804 37.6579ZM8.36842 39.0526C9.64693 37.193 12.8316 34.9382 18.1316 39.4013C19.9912 40.7961 24.4776 42.7487 27.5461 39.4013C28.9408 37.5417 32.7066 34.9382 36.6118 39.4013C37.193 40.2149 38.9829 41.7724 41.4934 41.4934C35.682 47.4211 21.4789 54.9526 8.36842 39.0526Z" fill="#2E2E30"/>
<circle cx="25.8026" cy="26.5" r="20.9211" stroke="#2F2F30" stroke-width="2.78947"/>
<path d="M20.2237 28.9408L18.829 27.8947C20.5724 27.5461 30.3356 17.0855 31.3816 16.0395C32.2185 15.2026 32.8926 15.4583 33.125 15.6908L34.8685 17.0855C34.0549 17.7829 31.8698 19.875 29.6382 22.6645C27.4066 25.454 22.432 28.011 20.2237 28.9408Z" fill="#2E2E30"/>
<path d="M19.5263 20.5724C18.8151 19.8612 16.9693 18.364 16.0394 17.7829L16.7368 17.0855C17.0855 16.7369 17.4342 16.7369 17.7828 17.0855L20.2236 19.1776C21.0605 19.7355 21.9671 19.4101 22.3157 19.1776C22.8969 18.7127 24.1986 17.6434 24.7565 17.0855C25.3144 16.5276 25.9188 16.8531 26.1513 17.0855L27.1973 18.1316L22.6644 22.3158C21.8508 22.0833 20.2236 21.2697 19.5263 20.5724Z" fill="#2E2E30"/>
<path d="M11.5066 25.1053C9.83288 25.1053 7.08989 26.9649 5.92761 27.8947V24.4079L9.76314 23.0132C11.5066 21.9671 11.8552 21.2697 13.5987 19.875C13.9473 19.5263 14.9934 19.1776 15.6908 19.5263C16.2487 19.8053 18.0153 21.2697 18.8289 21.9671C19.1776 22.3158 20.6886 23.3619 21.6184 23.7105L17.7829 26.5C17.5039 26.779 17.2017 26.6162 17.0855 26.5C15.1329 25.1053 12.5526 24.989 11.5066 25.1053Z" fill="#2E2E30"/>
<path d="M6.97366 20.2237L6.2763 23.0132C7.67103 22.7342 9.182 21.5022 9.76314 20.9211L12.2039 18.4803C12.4829 18.2013 13.0175 18.1316 13.25 18.1316L12.2039 17.0855C11.646 16.5276 11.0416 16.8531 10.8092 17.0855L10.1118 17.7829C8.99603 19.1776 7.55481 19.9912 6.97366 20.2237Z" fill="#2E2E30"/>
</g>
</g>
<defs>
<filter id="filter0_d_86_313" x="-1.39476" y="-0.697374" width="54.3947" height="54.3947" filterUnits="userSpaceOnUse" color-interpolation-filters="sRGB">
<feFlood flood-opacity="0" result="BackgroundImageFix"/>
<feColorMatrix in="SourceAlpha" type="matrix" values="0 0 0 0 0 0 0 0 0 0 0 0 0 0 0 0 0 0 127 0" result="hardAlpha"/>
<feOffset/>
<feGaussianBlur stdDeviation="2.44079"/>
<feComposite in2="hardAlpha" operator="out"/>
<feColorMatrix type="matrix" values="0 0 0 0 0 0 0 0 0 0 0 0 0 0 0 0 0 0 0.79 0"/>
<feBlend mode="normal" in2="BackgroundImageFix" result="effect1_dropShadow_86_313"/>
<feBlend mode="normal" in="SourceGraphic" in2="effect1_dropShadow_86_313" result="shape"/>
</filter>
<clipPath id="clip0_86_313">
<rect width="52.3026" height="53" rx="26.1513" fill="white"/>
</clipPath>
</defs>
</svg>
